<?xml version="1.0" encoding="UTF-8" standalone="no"?>
<!DOCTYPE svg PUBLIC "-//W3C//DTD SVG 1.1//EN"
 "http://www.w3.org/Graphics/SVG/1.1/DTD/svg11.dtd">
<!-- Generated by graphviz version 2.43.0 (0)
 -->
<!-- Title: G Pages: 1 -->
<svg width="525pt" height="1339pt"
 viewBox="0.00 0.00 524.66 1339.00" xmlns="http://www.w3.org/2000/svg" xmlns:xlink="http://www.w3.org/1999/xlink">
<g id="graph0" class="graph" transform="scale(1 1) rotate(0) translate(4 1335)">
<title>G</title>
<g id="clust1" class="cluster">
<title>cluster_0</title>
</g>
<g id="clust2" class="cluster">
<title>cluster_1</title>
<polygon fill="transparent" stroke="black" stroke-dasharray="5,2" points="8,-8 8,-1065 254,-1065 254,-8 8,-8"/>
<text text-anchor="middle" x="131" y="-1049.8" font-family="system-ui,-apple-system,Segoe UI,Roboto,Helvetica Neue,Arial,Noto Sans,sans-serif" font-size="14.00">pm_system_suspend()</text>
</g>
<!-- lock -->
<g id="node1" class="node">
<title>lock</title>
<ellipse fill="white" stroke="#999999" cx="421" cy="-1272" rx="63.65" ry="43"/>
<text text-anchor="middle" x="421" y="-1268.3" font-family="system-ui,-apple-system,Segoe UI,Roboto,Helvetica Neue,Arial,Noto Sans,sans-serif" font-size="14.00" fill="#404040">Lock interruptions</text>
</g>
<!-- config_pm -->
<g id="node2" class="node">
<title>config_pm</title>
<path fill="none" stroke="#999999" stroke-dasharray="5,2" d="M410.67,-1185.9C410.67,-1185.9 358.53,-1155.1 358.53,-1155.1 353.37,-1152.05 353.37,-1145.95 358.53,-1142.9 358.53,-1142.9 410.67,-1112.1 410.67,-1112.1 415.83,-1109.05 426.17,-1109.05 431.33,-1112.1 431.33,-1112.1 483.47,-1142.9 483.47,-1142.9 488.63,-1145.95 488.63,-1152.05 483.47,-1155.1 483.47,-1155.1 431.33,-1185.9 431.33,-1185.9 426.17,-1188.95 415.83,-1188.95 410.67,-1185.9"/>
<text text-anchor="middle" x="421" y="-1145.3" font-family="system-ui,-apple-system,Segoe UI,Roboto,Helvetica Neue,Arial,Noto Sans,sans-serif" font-size="14.00" fill="#404040">CONFIG_PM</text>
</g>
<!-- lock&#45;&gt;config_pm -->
<g id="edge1" class="edge">
<title>lock&#45;&gt;config_pm</title>
<path fill="none" stroke="#999999" d="M421,-1228.68C421,-1220.16 421,-1211.1 421,-1202.29"/>
<polygon fill="#999999" stroke="#999999" points="424.5,-1202.09 421,-1192.09 417.5,-1202.09 424.5,-1202.09"/>
</g>
<!-- forced_state -->
<g id="node3" class="node">
<title>forced_state</title>
<path fill="none" stroke="#999999" stroke-dasharray="5,2" d="M151.7,-1027.84C151.7,-1027.84 100.46,-997.16 100.46,-997.16 95.32,-994.08 95.32,-987.92 100.46,-984.84 100.46,-984.84 151.7,-954.16 151.7,-954.16 156.85,-951.08 167.15,-951.08 172.3,-954.16 172.3,-954.16 223.54,-984.84 223.54,-984.84 228.68,-987.92 228.68,-994.08 223.54,-997.16 223.54,-997.16 172.3,-1027.84 172.3,-1027.84 167.15,-1030.92 156.85,-1030.92 151.7,-1027.84"/>
<text text-anchor="middle" x="162" y="-987.3" font-family="system-ui,-apple-system,Segoe UI,Roboto,Helvetica Neue,Arial,Noto Sans,sans-serif" font-size="14.00" fill="#404040">state forced ?</text>
</g>
<!-- config_pm&#45;&gt;forced_state -->
<g id="edge14" class="edge">
<title>config_pm&#45;&gt;forced_state</title>
<path fill="none" stroke="#999999" d="M385.53,-1126.64C353.88,-1107.57 305.96,-1078.71 262.6,-1052.59"/>
<polygon fill="#999999" stroke="#999999" points="264.37,-1049.57 254,-1047.41 260.76,-1055.57 264.37,-1049.57"/>
<text text-anchor="middle" x="327.5" y="-1076.8" font-family="SFMono-Regular,Menlo,Monaco,Consolas,Liberation Mono,Courier New,Courier,monospace" font-size="14.00">yes</text>
</g>
<!-- k_cpu_idle -->
<g id="node11" class="node">
<title>k_cpu_idle</title>
<ellipse fill="white" stroke="#999999" cx="337" cy="-702" rx="46.9" ry="43"/>
<text text-anchor="middle" x="337" y="-698.3" font-family="system-ui,-apple-system,Segoe UI,Roboto,Helvetica Neue,Arial,Noto Sans,sans-serif" font-size="14.00" fill="#404040">k_cpu_idle()</text>
</g>
<!-- config_pm&#45;&gt;k_cpu_idle -->
<g id="edge13" class="edge">
<title>config_pm&#45;&gt;k_cpu_idle</title>
<path fill="none" stroke="#999999" d="M413.84,-1110.06C398.79,-1030.32 363.85,-845.26 346.77,-754.74"/>
<polygon fill="#999999" stroke="#999999" points="350.17,-753.88 344.87,-744.7 343.29,-755.18 350.17,-753.88"/>
<text text-anchor="middle" x="387.5" y="-918.8" font-family="SFMono-Regular,Menlo,Monaco,Consolas,Liberation Mono,Courier New,Courier,monospace" font-size="14.00">no</text>
</g>
<!-- config_system_managed_device_pm -->
<g id="node4" class="node">
<title>config_system_managed_device_pm</title>
<path fill="none" stroke="#999999" stroke-dasharray="5,2" d="M119.75,-740.81C119.75,-740.81 26.82,-706.19 26.82,-706.19 21.2,-704.09 21.2,-699.91 26.82,-697.81 26.82,-697.81 119.75,-663.19 119.75,-663.19 125.38,-661.09 136.62,-661.09 142.25,-663.19 142.25,-663.19 235.18,-697.81 235.18,-697.81 240.8,-699.91 240.8,-704.09 235.18,-706.19 235.18,-706.19 142.25,-740.81 142.25,-740.81 136.62,-742.91 125.38,-742.91 119.75,-740.81"/>
<text text-anchor="middle" x="131" y="-698.3" font-family="system-ui,-apple-system,Segoe UI,Roboto,Helvetica Neue,Arial,Noto Sans,sans-serif" font-size="14.00" fill="#404040">CONFIG_PM_DEVICE</text>
</g>
<!-- forced_state&#45;&gt;config_system_managed_device_pm -->
<g id="edge2" class="edge">
<title>forced_state&#45;&gt;config_system_managed_device_pm</title>
<path fill="none" stroke="#999999" d="M122.84,-971.25C95.19,-955.65 60.28,-930.56 44,-897 27.32,-862.61 31.29,-847.05 44,-811 53.4,-784.34 72.48,-759.42 90.38,-740.24"/>
<polygon fill="#999999" stroke="#999999" points="93.01,-742.56 97.42,-732.92 87.97,-737.7 93.01,-742.56"/>
<text text-anchor="middle" x="56.5" y="-850.3" font-family="SFMono-Regular,Menlo,Monaco,Consolas,Liberation Mono,Courier New,Courier,monospace" font-size="14.00">yes</text>
</g>
<!-- pm_policy -->
<g id="node6" class="node">
<title>pm_policy</title>
<ellipse fill="white" stroke="#999999" cx="162" cy="-854" rx="84.32" ry="43"/>
<text text-anchor="middle" x="162" y="-857.8" font-family="system-ui,-apple-system,Segoe UI,Roboto,Helvetica Neue,Arial,Noto Sans,sans-serif" font-size="14.00" fill="#404040">Check policy manager</text>
<text text-anchor="middle" x="162" y="-842.8" font-family="system-ui,-apple-system,Segoe UI,Roboto,Helvetica Neue,Arial,Noto Sans,sans-serif" font-size="14.00" fill="#404040">for a power state </text>
</g>
<!-- forced_state&#45;&gt;pm_policy -->
<g id="edge3" class="edge">
<title>forced_state&#45;&gt;pm_policy</title>
<path fill="none" stroke="#999999" d="M162,-947.66C162,-934.84 162,-920.61 162,-907.23"/>
<polygon fill="#999999" stroke="#999999" points="165.5,-907.19 162,-897.19 158.5,-907.19 165.5,-907.19"/>
<text text-anchor="middle" x="170.5" y="-918.8" font-family="SFMono-Regular,Menlo,Monaco,Consolas,Liberation Mono,Courier New,Courier,monospace" font-size="14.00">no</text>
</g>
<!-- pm_suspend_devices -->
<g id="node7" class="node">
<title>pm_suspend_devices</title>
<ellipse fill="white" stroke="#999999" cx="131" cy="-565" rx="39.03" ry="43"/>
<text text-anchor="middle" x="131" y="-568.8" font-family="system-ui,-apple-system,Segoe UI,Roboto,Helvetica Neue,Arial,Noto Sans,sans-serif" font-size="14.00" fill="#404040">Suspend</text>
<text text-anchor="middle" x="131" y="-553.8" font-family="system-ui,-apple-system,Segoe UI,Roboto,Helvetica Neue,Arial,Noto Sans,sans-serif" font-size="14.00" fill="#404040">devices</text>
</g>
<!-- config_system_managed_device_pm&#45;&gt;pm_suspend_devices -->
<g id="edge6" class="edge">
<title>config_system_managed_device_pm&#45;&gt;pm_suspend_devices</title>
<path fill="none" stroke="#999999" d="M131,-658.66C131,-645.84 131,-631.61 131,-618.23"/>
<polygon fill="#999999" stroke="#999999" points="134.5,-618.19 131,-608.19 127.5,-618.19 134.5,-618.19"/>
<text text-anchor="middle" x="143.5" y="-629.8" font-family="SFMono-Regular,Menlo,Monaco,Consolas,Liberation Mono,Courier New,Courier,monospace" font-size="14.00">yes</text>
</g>
<!-- pm_state_set -->
<g id="node9" class="node">
<title>pm_state_set</title>
<ellipse fill="none" stroke="#999999" stroke-width="2" cx="131" cy="-442" rx="76.22" ry="43"/>
<text text-anchor="middle" x="131" y="-445.8" font-family="system-ui,-apple-system,Segoe UI,Roboto,Helvetica Neue,Arial,Noto Sans,sans-serif" font-size="14.00" fill="#404040">Change power state</text>
<text text-anchor="middle" x="131" y="-430.8" font-family="system-ui,-apple-system,Segoe UI,Roboto,Helvetica Neue,Arial,Noto Sans,sans-serif" font-size="14.00" fill="#404040">(SoC API)</text>
</g>
<!-- config_system_managed_device_pm&#45;&gt;pm_state_set -->
<g id="edge5" class="edge">
<title>config_system_managed_device_pm&#45;&gt;pm_state_set:e</title>
<path fill="none" stroke="#999999" d="M151.57,-666.16C160.97,-649.08 171.63,-627.94 179,-608 198.47,-555.32 200.86,-540.71 208,-485 209.73,-471.52 219.17,-455.47 217.61,-447.32"/>
<polygon fill="#999999" stroke="#999999" points="219.35,-444.28 209,-442 215.67,-450.24 219.35,-444.28"/>
<text text-anchor="middle" x="211.5" y="-561.3" font-family="SFMono-Regular,Menlo,Monaco,Consolas,Liberation Mono,Courier New,Courier,monospace" font-size="14.00">no</text>
</g>
<!-- config_system_managed_device_pm2 -->
<g id="node5" class="node">
<title>config_system_managed_device_pm2</title>
<path fill="none" stroke="#999999" stroke-dasharray="5,2" d="M119.75,-357.81C119.75,-357.81 26.82,-323.19 26.82,-323.19 21.2,-321.09 21.2,-316.91 26.82,-314.81 26.82,-314.81 119.75,-280.19 119.75,-280.19 125.38,-278.09 136.62,-278.09 142.25,-280.19 142.25,-280.19 235.18,-314.81 235.18,-314.81 240.8,-316.91 240.8,-321.09 235.18,-323.19 235.18,-323.19 142.25,-357.81 142.25,-357.81 136.62,-359.91 125.38,-359.91 119.75,-357.81"/>
<text text-anchor="middle" x="131" y="-315.3" font-family="system-ui,-apple-system,Segoe UI,Roboto,Helvetica Neue,Arial,Noto Sans,sans-serif" font-size="14.00" fill="#404040">CONFIG_PM_DEVICE</text>
</g>
<!-- pm_resume_devices -->
<g id="node8" class="node">
<title>pm_resume_devices</title>
<ellipse fill="white" stroke="#999999" cx="73" cy="-182" rx="37.8" ry="43"/>
<text text-anchor="middle" x="73" y="-185.8" font-family="system-ui,-apple-system,Segoe UI,Roboto,Helvetica Neue,Arial,Noto Sans,sans-serif" font-size="14.00" fill="#404040">Resume</text>
<text text-anchor="middle" x="73" y="-170.8" font-family="system-ui,-apple-system,Segoe UI,Roboto,Helvetica Neue,Arial,Noto Sans,sans-serif" font-size="14.00" fill="#404040">devices</text>
</g>
<!-- config_system_managed_device_pm2&#45;&gt;pm_resume_devices -->
<g id="edge9" class="edge">
<title>config_system_managed_device_pm2&#45;&gt;pm_resume_devices</title>
<path fill="none" stroke="#999999" d="M115.3,-281.47C108.57,-265.8 100.62,-247.29 93.44,-230.58"/>
<polygon fill="#999999" stroke="#999999" points="96.48,-228.78 89.32,-220.98 90.05,-231.55 96.48,-228.78"/>
<text text-anchor="middle" x="116.5" y="-246.8" font-family="SFMono-Regular,Menlo,Monaco,Consolas,Liberation Mono,Courier New,Courier,monospace" font-size="14.00">yes</text>
</g>
<!-- pm_system_resume -->
<g id="node10" class="node">
<title>pm_system_resume</title>
<ellipse fill="none" stroke="#999999" stroke-width="2" cx="136" cy="-59" rx="92.89" ry="43"/>
<text text-anchor="middle" x="136" y="-70.3" font-family="system-ui,-apple-system,Segoe UI,Roboto,Helvetica Neue,Arial,Noto Sans,sans-serif" font-size="14.00" fill="#404040">Finish wake&#45;up</text>
<text text-anchor="middle" x="136" y="-55.3" font-family="system-ui,-apple-system,Segoe UI,Roboto,Helvetica Neue,Arial,Noto Sans,sans-serif" font-size="14.00" fill="#404040">(SoC API)</text>
<text text-anchor="middle" x="136" y="-40.3" font-family="system-ui,-apple-system,Segoe UI,Roboto,Helvetica Neue,Arial,Noto Sans,sans-serif" font-size="14.00" fill="#404040">(restore interruptions)</text>
</g>
<!-- config_system_managed_device_pm2&#45;&gt;pm_system_resume -->
<g id="edge10" class="edge">
<title>config_system_managed_device_pm2&#45;&gt;pm_system_resume</title>
<path fill="none" stroke="#999999" d="M132.49,-276.37C132.68,-270.21 132.86,-263.94 133,-258 134.2,-208.52 135,-152.07 135.47,-112.14"/>
<polygon fill="#999999" stroke="#999999" points="138.97,-112.15 135.58,-102.11 131.97,-112.06 138.97,-112.15"/>
<text text-anchor="middle" x="144.5" y="-178.3" font-family="SFMono-Regular,Menlo,Monaco,Consolas,Liberation Mono,Courier New,Courier,monospace" font-size="14.00">no</text>
</g>
<!-- pm_policy&#45;&gt;config_system_managed_device_pm -->
<g id="edge4" class="edge">
<title>pm_policy&#45;&gt;config_system_managed_device_pm</title>
<path fill="none" stroke="#999999" d="M143.67,-811.89C141.45,-805.66 139.45,-799.23 138,-793 135.19,-780.96 133.45,-767.79 132.38,-755.33"/>
<polygon fill="#999999" stroke="#999999" points="135.85,-754.79 131.64,-745.07 128.87,-755.3 135.85,-754.79"/>
</g>
<!-- pm_policy&#45;&gt;k_cpu_idle -->
<g id="edge12" class="edge">
<title>pm_policy&#45;&gt;k_cpu_idle</title>
<path fill="none" stroke="#999999" d="M150.62,-811.01C148.68,-794.36 150.11,-776.1 161,-763 189.03,-729.29 216.61,-759.46 258,-745 268.44,-741.35 279.19,-736.49 289.26,-731.36"/>
<polygon fill="#999999" stroke="#999999" points="291.07,-734.36 298.29,-726.6 287.81,-728.17 291.07,-734.36"/>
<text text-anchor="middle" x="301.5" y="-781.8" font-family="SFMono-Regular,Menlo,Monaco,Consolas,Liberation Mono,Courier New,Courier,monospace" font-size="14.00">PM_STATE_ACTIVE</text>
<text text-anchor="middle" x="301.5" y="-766.8" font-family="SFMono-Regular,Menlo,Monaco,Consolas,Liberation Mono,Courier New,Courier,monospace" font-size="14.00">(no power state meet requirements)</text>
</g>
<!-- pm_suspend_devices&#45;&gt;pm_state_set -->
<g id="edge7" class="edge">
<title>pm_suspend_devices&#45;&gt;pm_state_set</title>
<path fill="none" stroke="#999999" d="M131,-521.68C131,-513.16 131,-504.1 131,-495.29"/>
<polygon fill="#999999" stroke="#999999" points="134.5,-495.09 131,-485.09 127.5,-495.09 134.5,-495.09"/>
</g>
<!-- pm_resume_devices&#45;&gt;pm_system_resume -->
<g id="edge11" class="edge">
<title>pm_resume_devices&#45;&gt;pm_system_resume</title>
<path fill="none" stroke="#999999" d="M91.9,-144.7C97.56,-133.82 103.88,-121.7 109.92,-110.1"/>
<polygon fill="#999999" stroke="#999999" points="113.17,-111.43 114.68,-100.94 106.96,-108.19 113.17,-111.43"/>
</g>
<!-- pm_state_set&#45;&gt;config_system_managed_device_pm2 -->
<g id="edge8" class="edge">
<title>pm_state_set&#45;&gt;config_system_managed_device_pm2</title>
<path fill="none" stroke="#999999" d="M131,-398.68C131,-390.16 131,-381.1 131,-372.29"/>
<polygon fill="#999999" stroke="#999999" points="134.5,-372.09 131,-362.09 127.5,-372.09 134.5,-372.09"/>
</g>
<!-- pm_system_resume&#45;&gt;lock -->
<g id="edge15" class="edge">
<title>pm_system_resume:e&#45;&gt;lock:e</title>
<path fill="none" stroke="#999999" d="M230,-59C240.77,-59 605.48,-1208.88 495.96,-1269.51"/>
<polygon fill="#999999" stroke="#999999" points="494.85,-1266.18 486,-1272 496.55,-1272.97 494.85,-1266.18"/>
</g>
</g>
</svg>
