<?xml version="1.0" encoding="UTF-8" standalone="no"?>
<!DOCTYPE svg PUBLIC "-//W3C//DTD SVG 1.1//EN"
 "http://www.w3.org/Graphics/SVG/1.1/DTD/svg11.dtd">
<!-- Generated by graphviz version 2.43.0 (0)
 -->
<!-- Title: bluetooth_hfp_ag Pages: 1 -->
<svg width="862pt" height="275pt"
 viewBox="0.00 0.00 862.00 275.00" xmlns="http://www.w3.org/2000/svg" xmlns:xlink="http://www.w3.org/1999/xlink">
<g id="graph0" class="graph" transform="scale(1 1) rotate(0) translate(4 271)">
<title>bluetooth_hfp_ag</title>
<g id="clust1" class="cluster">
<title>cluster_hf</title>
<polygon fill="transparent" stroke="black" points="329.5,-8 329.5,-83 445.5,-83 445.5,-8 329.5,-8"/>
<text text-anchor="middle" x="387.5" y="-67.8" font-family="system-ui,-apple-system,Segoe UI,Roboto,Helvetica Neue,Arial,Noto Sans,sans-serif" font-size="14.00">Hands&#45;Free Unit</text>
</g>
<g id="clust2" class="cluster">
<title>cluster_ag</title>
<polygon fill="transparent" stroke="black" points="8,-92 8,-259 846,-259 846,-92 8,-92"/>
<text text-anchor="middle" x="427" y="-243.8" font-family="system-ui,-apple-system,Segoe UI,Roboto,Helvetica Neue,Arial,Noto Sans,sans-serif" font-size="14.00">Zephyr Hands&#45;Free AG</text>
</g>
<!-- init -->
<g id="node1" class="node">
<title>init</title>
<ellipse fill="white" stroke="#999999" cx="57" cy="-82" rx="1.8" ry="1.8"/>
</g>
<!-- HF -->
<g id="node2" class="node">
<title>HF</title>
<polygon fill="white" stroke="#999999" points="419.5,-52 354.5,-52 354.5,-16 419.5,-16 419.5,-52"/>
<text text-anchor="middle" x="387" y="-30.3" font-family="system-ui,-apple-system,Segoe UI,Roboto,Helvetica Neue,Arial,Noto Sans,sans-serif" font-size="14.00" fill="#404040">HFP HF</text>
</g>
<!-- BT_CTRL -->
<g id="node4" class="node">
<title>BT_CTRL</title>
<polygon fill="white" stroke="#999999" points="225,-136 150,-136 150,-100 225,-100 225,-136"/>
<text text-anchor="middle" x="187.5" y="-114.3" font-family="system-ui,-apple-system,Segoe UI,Roboto,Helvetica Neue,Arial,Noto Sans,sans-serif" font-size="14.00" fill="#404040">Controller</text>
</g>
<!-- HF&#45;&gt;BT_CTRL -->
<g id="edge1" class="edge">
<title>HF&#45;&gt;BT_CTRL</title>
<path fill="none" stroke="#999999" d="M354.27,-41.3C324.58,-48.81 279.45,-61.94 243,-80 235.05,-83.94 226.96,-88.94 219.53,-94.01"/>
<polygon fill="#999999" stroke="#999999" points="217.3,-91.3 211.16,-99.94 221.34,-97.02 217.3,-91.3"/>
<text text-anchor="middle" x="272" y="-92.8" font-family="SFMono-Regular,Menlo,Monaco,Consolas,Liberation Mono,Courier New,Courier,monospace" font-size="9.00">SCO Link</text>
<text text-anchor="middle" x="272" y="-82.8" font-family="SFMono-Regular,Menlo,Monaco,Consolas,Liberation Mono,Courier New,Courier,monospace" font-size="9.00">(BR/EDR)</text>
</g>
<!-- BT_HOST -->
<g id="node3" class="node">
<title>BT_HOST</title>
<polygon fill="white" stroke="#999999" points="98,-181 16,-181 16,-145 98,-145 98,-181"/>
<text text-anchor="middle" x="57" y="-159.3" font-family="system-ui,-apple-system,Segoe UI,Roboto,Helvetica Neue,Arial,Noto Sans,sans-serif" font-size="14.00" fill="#404040">Host Stack</text>
</g>
<!-- BT_HOST&#45;&gt;BT_CTRL -->
<g id="edge3" class="edge">
<title>BT_HOST&#45;&gt;BT_CTRL</title>
<path fill="none" stroke="#999999" d="M98.31,-148.89C111.57,-144.24 126.43,-139.04 140.11,-134.24"/>
<polygon fill="#999999" stroke="#999999" points="141.55,-137.45 149.83,-130.84 139.23,-130.84 141.55,-137.45"/>
<text text-anchor="middle" x="124" y="-143.8" font-family="SFMono-Regular,Menlo,Monaco,Consolas,Liberation Mono,Courier New,Courier,monospace" font-size="9.00">HCI</text>
</g>
<!-- HFP_AG_APP -->
<g id="node5" class="node">
<title>HFP_AG_APP</title>
<polygon fill="white" stroke="#999999" points="455,-200 319,-200 319,-164 455,-164 455,-200"/>
<text text-anchor="middle" x="387" y="-178.3" font-family="system-ui,-apple-system,Segoe UI,Roboto,Helvetica Neue,Arial,Noto Sans,sans-serif" font-size="14.00" fill="#404040">HFP AG Application</text>
</g>
<!-- BT_HOST&#45;&gt;HFP_AG_APP -->
<g id="edge5" class="edge">
<title>BT_HOST&#45;&gt;HFP_AG_APP</title>
<path fill="none" stroke="#999999" d="M98.35,-167.62C135.79,-171.69 193.08,-177.36 243,-180 264.2,-181.12 287.19,-181.72 308.41,-182.01"/>
<polygon fill="#999999" stroke="#999999" points="308.63,-185.51 318.67,-182.13 308.72,-178.51 308.63,-185.51"/>
<text text-anchor="middle" x="187.5" y="-180.8" font-family="SFMono-Regular,Menlo,Monaco,Consolas,Liberation Mono,Courier New,Courier,monospace" font-size="9.00">AG Callbacks</text>
</g>
<!-- BT_CTRL&#45;&gt;HF -->
<g id="edge2" class="edge">
<title>BT_CTRL&#45;&gt;HF</title>
<path fill="none" stroke="#999999" d="M194.04,-99.94C201.46,-79.27 216.83,-46.4 243,-32 273.75,-15.08 314.13,-17.46 344.14,-22.97"/>
<polygon fill="#999999" stroke="#999999" points="343.79,-26.48 354.29,-25.03 345.18,-19.62 343.79,-26.48"/>
<text text-anchor="middle" x="272" y="-44.8" font-family="SFMono-Regular,Menlo,Monaco,Consolas,Liberation Mono,Courier New,Courier,monospace" font-size="9.00">SCO Link</text>
<text text-anchor="middle" x="272" y="-34.8" font-family="SFMono-Regular,Menlo,Monaco,Consolas,Liberation Mono,Courier New,Courier,monospace" font-size="9.00">(BR/EDR)</text>
</g>
<!-- BT_CTRL&#45;&gt;BT_HOST -->
<g id="edge4" class="edge">
<title>BT_CTRL&#45;&gt;BT_HOST</title>
<path fill="none" stroke="#999999" d="M149.89,-116.93C138.75,-117.57 126.65,-119.26 116,-123 105.68,-126.62 95.49,-132.59 86.6,-138.83"/>
<polygon fill="#999999" stroke="#999999" points="84.47,-136.06 78.52,-144.82 88.64,-141.68 84.47,-136.06"/>
<text text-anchor="middle" x="124" y="-125.8" font-family="SFMono-Regular,Menlo,Monaco,Consolas,Liberation Mono,Courier New,Courier,monospace" font-size="9.00">HCI</text>
</g>
<!-- BT_CTRL&#45;&gt;HFP_AG_APP -->
<g id="edge10" class="edge">
<title>BT_CTRL&#45;&gt;HFP_AG_APP</title>
<path fill="none" stroke="#999999" d="M225.26,-107.45C248.58,-102.96 278.49,-101.45 301,-115 315.65,-123.82 306.73,-137.09 319,-149 322.53,-152.43 326.5,-155.57 330.68,-158.43"/>
<polygon fill="#999999" stroke="#999999" points="329.17,-161.62 339.51,-163.91 332.86,-155.67 329.17,-161.62"/>
<text text-anchor="middle" x="272" y="-127.8" font-family="SFMono-Regular,Menlo,Monaco,Consolas,Liberation Mono,Courier New,Courier,monospace" font-size="9.00">Peer voice</text>
<text text-anchor="middle" x="272" y="-117.8" font-family="SFMono-Regular,Menlo,Monaco,Consolas,Liberation Mono,Courier New,Courier,monospace" font-size="9.00">PCM input</text>
</g>
<!-- HFP_AG_APP&#45;&gt;BT_HOST -->
<g id="edge6" class="edge">
<title>HFP_AG_APP&#45;&gt;BT_HOST</title>
<path fill="none" stroke="#999999" d="M318.99,-191.73C271.54,-196.95 206.54,-200.7 150,-192 136.01,-189.85 121.24,-185.96 107.72,-181.71"/>
<polygon fill="#999999" stroke="#999999" points="108.72,-178.35 98.12,-178.57 106.54,-185.01 108.72,-178.35"/>
<text text-anchor="middle" x="187.5" y="-199.8" font-family="SFMono-Regular,Menlo,Monaco,Consolas,Liberation Mono,Courier New,Courier,monospace" font-size="9.00">AG APIs</text>
</g>
<!-- HFP_AG_APP&#45;&gt;BT_CTRL -->
<g id="edge9" class="edge">
<title>HFP_AG_APP&#45;&gt;BT_CTRL</title>
<path fill="none" stroke="#999999" d="M322.31,-163.97C297.44,-156.64 268.75,-147.82 243,-139 240.26,-138.06 237.45,-137.07 234.62,-136.05"/>
<polygon fill="#999999" stroke="#999999" points="235.6,-132.68 225.01,-132.5 233.18,-139.25 235.6,-132.68"/>
<text text-anchor="middle" x="272" y="-168.8" font-family="SFMono-Regular,Menlo,Monaco,Consolas,Liberation Mono,Courier New,Courier,monospace" font-size="9.00">Local voice</text>
<text text-anchor="middle" x="272" y="-158.8" font-family="SFMono-Regular,Menlo,Monaco,Consolas,Liberation Mono,Courier New,Courier,monospace" font-size="9.00">PCM output</text>
</g>
<!-- CODEC -->
<g id="node6" class="node">
<title>CODEC</title>
<polygon fill="white" stroke="#999999" points="671,-173 549,-173 549,-137 671,-137 671,-173"/>
<text text-anchor="middle" x="610" y="-151.3" font-family="system-ui,-apple-system,Segoe UI,Roboto,Helvetica Neue,Arial,Noto Sans,sans-serif" font-size="14.00" fill="#404040">Audio Subsystem</text>
</g>
<!-- HFP_AG_APP&#45;&gt;CODEC -->
<g id="edge7" class="edge">
<title>HFP_AG_APP&#45;&gt;CODEC</title>
<path fill="none" stroke="#999999" d="M455.34,-174.87C479.25,-172.23 506.34,-169.12 531,-166 533.64,-165.67 536.34,-165.32 539.06,-164.96"/>
<polygon fill="#999999" stroke="#999999" points="539.53,-168.43 548.98,-163.64 538.6,-161.49 539.53,-168.43"/>
<text text-anchor="middle" x="502" y="-174.8" font-family="SFMono-Regular,Menlo,Monaco,Consolas,Liberation Mono,Courier New,Courier,monospace" font-size="9.00">Peer voice</text>
</g>
<!-- CODEC&#45;&gt;HFP_AG_APP -->
<g id="edge8" class="edge">
<title>CODEC&#45;&gt;HFP_AG_APP</title>
<path fill="none" stroke="#999999" d="M548.78,-151.04C525.04,-150.51 497.62,-151.18 473,-155 464.01,-156.39 454.67,-158.57 445.61,-161.1"/>
<polygon fill="#999999" stroke="#999999" points="444.53,-157.77 435.93,-163.95 446.51,-164.48 444.53,-157.77"/>
<text text-anchor="middle" x="502" y="-157.8" font-family="SFMono-Regular,Menlo,Monaco,Consolas,Liberation Mono,Courier New,Courier,monospace" font-size="9.00">Local voice</text>
</g>
<!-- SPK -->
<g id="node7" class="node">
<title>SPK</title>
<polygon fill="white" stroke="#999999" points="838,-173 771,-173 771,-137 838,-137 838,-173"/>
<text text-anchor="middle" x="804.5" y="-151.3" font-family="system-ui,-apple-system,Segoe UI,Roboto,Helvetica Neue,Arial,Noto Sans,sans-serif" font-size="14.00" fill="#404040">Speaker</text>
</g>
<!-- CODEC&#45;&gt;SPK -->
<g id="edge11" class="edge">
<title>CODEC&#45;&gt;SPK</title>
<path fill="none" stroke="#999999" d="M671.12,-155C700.24,-155 734.52,-155 760.9,-155"/>
<polygon fill="#999999" stroke="#999999" points="760.95,-158.5 770.95,-155 760.95,-151.5 760.95,-158.5"/>
<text text-anchor="middle" x="721" y="-157.8" font-family="SFMono-Regular,Menlo,Monaco,Consolas,Liberation Mono,Courier New,Courier,monospace" font-size="9.00">Audio output</text>
</g>
<!-- MIC -->
<g id="node8" class="node">
<title>MIC</title>
<polygon fill="white" stroke="#999999" points="431,-140 343,-140 343,-104 431,-104 431,-140"/>
<text text-anchor="middle" x="387" y="-118.3" font-family="system-ui,-apple-system,Segoe UI,Roboto,Helvetica Neue,Arial,Noto Sans,sans-serif" font-size="14.00" fill="#404040">Microphone</text>
</g>
<!-- MIC&#45;&gt;CODEC -->
<g id="edge12" class="edge">
<title>MIC&#45;&gt;CODEC</title>
<path fill="none" stroke="#999999" d="M431.07,-124.62C459.57,-126.75 497.68,-130.34 531,-136 533.52,-136.43 536.09,-136.89 538.67,-137.39"/>
<polygon fill="#999999" stroke="#999999" points="538.21,-140.87 548.71,-139.42 539.6,-134.01 538.21,-140.87"/>
<text text-anchor="middle" x="502" y="-138.8" font-family="SFMono-Regular,Menlo,Monaco,Consolas,Liberation Mono,Courier New,Courier,monospace" font-size="9.00">Audio input</text>
</g>
</g>
</svg>
