<?xml version="1.0" encoding="UTF-8" standalone="no"?>
<!DOCTYPE svg PUBLIC "-//W3C//DTD SVG 1.1//EN"
 "http://www.w3.org/Graphics/SVG/1.1/DTD/svg11.dtd">
<!-- Generated by graphviz version 2.43.0 (0)
 -->
<!-- Title: %3 Pages: 1 -->
<svg width="390pt" height="273pt"
 viewBox="0.00 0.00 389.50 272.60" xmlns="http://www.w3.org/2000/svg" xmlns:xlink="http://www.w3.org/1999/xlink">
<g id="graph0" class="graph" transform="scale(1 1) rotate(0) translate(4 268.6)">
<title>%3</title>
<!-- init -->
<g id="node1" class="node">
<title>init</title>
<ellipse fill="white" stroke="#999999" cx="224.5" cy="-262.8" rx="1.8" ry="1.8"/>
</g>
<!-- CONFIGURED -->
<g id="node2" class="node">
<title>CONFIGURED</title>
<polygon fill="white" stroke="#999999" points="266,-210 183,-210 183,-174 266,-174 266,-210"/>
<text text-anchor="middle" x="224.5" y="-188.3" font-family="system-ui,-apple-system,Segoe UI,Roboto,Helvetica Neue,Arial,Noto Sans,sans-serif" font-size="14.00" fill="#404040">Configured</text>
</g>
<!-- init&#45;&gt;CONFIGURED -->
<g id="edge1" class="edge">
<title>init&#45;&gt;CONFIGURED</title>
<path fill="none" stroke="#999999" d="M224.5,-260.83C224.5,-256.34 224.5,-237.11 224.5,-220.27"/>
<polygon fill="#999999" stroke="#999999" points="228,-220.24 224.5,-210.24 221,-220.24 228,-220.24"/>
<text text-anchor="middle" x="266" y="-231.8" font-family="SFMono-Regular,Menlo,Monaco,Consolas,Liberation Mono,Courier New,Courier,monospace" font-size="14.00">dma_config</text>
</g>
<!-- CONFIGURED&#45;&gt;CONFIGURED -->
<g id="edge3" class="edge">
<title>CONFIGURED:e&#45;&gt;CONFIGURED:c</title>
<path fill="none" stroke="#999999" d="M266.5,-192C272,-202.5 284,-202.5 284,-192 284,-189.13 281.03,-187.04 276.32,-185.74"/>
<polygon fill="#999999" stroke="#999999" points="276.61,-182.25 266.21,-184.25 275.59,-189.17 276.61,-182.25"/>
<text text-anchor="middle" x="317.5" y="-188.3" font-family="SFMono-Regular,Menlo,Monaco,Consolas,Liberation Mono,Courier New,Courier,monospace" font-size="14.00">dma_stop</text>
</g>
<!-- CONFIGURED&#45;&gt;CONFIGURED -->
<g id="edge4" class="edge">
<title>CONFIGURED:w&#45;&gt;CONFIGURED:c</title>
<path fill="none" stroke="#999999" d="M182.5,-192C177,-202.5 165,-202.5 165,-192 165,-189.13 167.97,-187.04 172.68,-185.74"/>
<polygon fill="#999999" stroke="#999999" points="173.41,-189.17 182.79,-184.25 172.39,-182.25 173.41,-189.17"/>
<text text-anchor="middle" x="123.5" y="-188.3" font-family="SFMono-Regular,Menlo,Monaco,Consolas,Liberation Mono,Courier New,Courier,monospace" font-size="14.00">dma_config</text>
</g>
<!-- RUNNING -->
<g id="node3" class="node">
<title>RUNNING</title>
<polygon fill="white" stroke="#999999" points="168,-123 101,-123 101,-87 168,-87 168,-123"/>
<text text-anchor="middle" x="134.5" y="-101.3" font-family="system-ui,-apple-system,Segoe UI,Roboto,Helvetica Neue,Arial,Noto Sans,sans-serif" font-size="14.00" fill="#404040">Running</text>
</g>
<!-- CONFIGURED&#45;&gt;RUNNING -->
<g id="edge2" class="edge">
<title>CONFIGURED&#45;&gt;RUNNING</title>
<path fill="none" stroke="#999999" d="M182.91,-186.96C162.67,-182.66 140.05,-173.87 127.5,-156 122.82,-149.34 122.46,-140.94 123.89,-132.93"/>
<polygon fill="#999999" stroke="#999999" points="127.3,-133.73 126.48,-123.16 120.54,-131.93 127.3,-133.73"/>
<text text-anchor="middle" x="165" y="-144.8" font-family="SFMono-Regular,Menlo,Monaco,Consolas,Liberation Mono,Courier New,Courier,monospace" font-size="14.00">dma_start</text>
</g>
<!-- RUNNING&#45;&gt;CONFIGURED -->
<g id="edge5" class="edge">
<title>RUNNING&#45;&gt;CONFIGURED</title>
<path fill="none" stroke="#999999" d="M168.29,-117.89C180.29,-123.43 193.13,-131.04 202.5,-141 208.6,-147.48 213.18,-155.93 216.54,-164.03"/>
<polygon fill="#999999" stroke="#999999" points="213.32,-165.41 220.05,-173.59 219.89,-162.99 213.32,-165.41"/>
<text text-anchor="middle" x="247" y="-144.8" font-family="SFMono-Regular,Menlo,Monaco,Consolas,Liberation Mono,Courier New,Courier,monospace" font-size="14.00">dma_stop</text>
</g>
<!-- RUNNING&#45;&gt;RUNNING -->
<g id="edge6" class="edge">
<title>RUNNING&#45;&gt;RUNNING</title>
<path fill="none" stroke="#999999" d="M168.18,-112.86C178.2,-112.62 186,-110 186,-105 186,-101.87 182.95,-99.68 178.22,-98.41"/>
<polygon fill="#999999" stroke="#999999" points="178.54,-94.92 168.18,-97.14 177.66,-101.87 178.54,-94.92"/>
<text text-anchor="middle" x="223.5" y="-101.3" font-family="SFMono-Regular,Menlo,Monaco,Consolas,Liberation Mono,Courier New,Courier,monospace" font-size="14.00">dma_start</text>
</g>
<!-- RUNNING&#45;&gt;RUNNING -->
<g id="edge7" class="edge">
<title>RUNNING&#45;&gt;RUNNING:w</title>
<path fill="none" stroke="#999999" d="M100.82,-112.86C90.8,-112.62 83,-110 83,-105 83,-98.11 88.17,-95.74 93.28,-97.89"/>
<polygon fill="#999999" stroke="#999999" points="90.92,-100.48 100.5,-105 95.82,-95.49 90.92,-100.48"/>
<text text-anchor="middle" x="41.5" y="-101.3" font-family="SFMono-Regular,Menlo,Monaco,Consolas,Liberation Mono,Courier New,Courier,monospace" font-size="14.00">dma_resume</text>
</g>
<!-- SUSPENDED -->
<g id="node4" class="node">
<title>SUSPENDED</title>
<polygon fill="white" stroke="#999999" points="251,-36 166,-36 166,0 251,0 251,-36"/>
<text text-anchor="middle" x="208.5" y="-14.3" font-family="system-ui,-apple-system,Segoe UI,Roboto,Helvetica Neue,Arial,Noto Sans,sans-serif" font-size="14.00" fill="#404040">Suspended</text>
</g>
<!-- RUNNING&#45;&gt;SUSPENDED -->
<g id="edge8" class="edge">
<title>RUNNING&#45;&gt;SUSPENDED</title>
<path fill="none" stroke="#999999" d="M107.9,-86.82C96.44,-77.26 87.33,-65.08 95.5,-54 109.45,-35.08 133.52,-26.08 155.86,-21.91"/>
<polygon fill="#999999" stroke="#999999" points="156.64,-25.33 165.97,-20.32 155.55,-18.42 156.64,-25.33"/>
<text text-anchor="middle" x="141" y="-57.8" font-family="SFMono-Regular,Menlo,Monaco,Consolas,Liberation Mono,Courier New,Courier,monospace" font-size="14.00">dma_suspend</text>
</g>
<!-- SUSPENDED&#45;&gt;CONFIGURED -->
<g id="edge11" class="edge">
<title>SUSPENDED&#45;&gt;CONFIGURED</title>
<path fill="none" stroke="#999999" d="M251.15,-29.85C263.31,-35.1 275.22,-42.8 282.5,-54 347.38,-153.89 296.17,-135.68 284.5,-156 281.86,-160.59 278.37,-164.63 274.39,-168.18"/>
<polygon fill="#999999" stroke="#999999" points="272.05,-165.56 266.23,-174.42 276.3,-171.13 272.05,-165.56"/>
<text text-anchor="middle" x="348" y="-101.3" font-family="SFMono-Regular,Menlo,Monaco,Consolas,Liberation Mono,Courier New,Courier,monospace" font-size="14.00">dma_stop</text>
</g>
<!-- SUSPENDED&#45;&gt;RUNNING -->
<g id="edge10" class="edge">
<title>SUSPENDED&#45;&gt;RUNNING</title>
<path fill="none" stroke="#999999" d="M203.67,-36.07C200.13,-46.4 194.53,-59.4 186.5,-69 182.92,-73.28 178.69,-77.25 174.22,-80.86"/>
<polygon fill="#999999" stroke="#999999" points="171.93,-78.19 165.98,-86.96 176.1,-83.82 171.93,-78.19"/>
<text text-anchor="middle" x="237" y="-57.8" font-family="SFMono-Regular,Menlo,Monaco,Consolas,Liberation Mono,Courier New,Courier,monospace" font-size="14.00">dma_resume</text>
</g>
<!-- SUSPENDED&#45;&gt;SUSPENDED -->
<g id="edge9" class="edge">
<title>SUSPENDED&#45;&gt;SUSPENDED</title>
<path fill="none" stroke="#999999" d="M251.18,-25.74C261.42,-25.13 269,-22.55 269,-18 269,-15.15 266.04,-13.08 261.32,-11.78"/>
<polygon fill="#999999" stroke="#999999" points="261.59,-8.28 251.18,-10.26 260.56,-15.2 261.59,-8.28"/>
<text text-anchor="middle" x="314.5" y="-14.3" font-family="SFMono-Regular,Menlo,Monaco,Consolas,Liberation Mono,Courier New,Courier,monospace" font-size="14.00">dma_suspend</text>
</g>
</g>
</svg>
