<?xml version="1.0" encoding="UTF-8" standalone="no"?>
<!DOCTYPE svg PUBLIC "-//W3C//DTD SVG 1.1//EN"
 "http://www.w3.org/Graphics/SVG/1.1/DTD/svg11.dtd">
<!-- Generated by graphviz version 2.43.0 (0)
 -->
<!-- Title: bluetooth_hfp Pages: 1 -->
<svg width="911pt" height="275pt"
 viewBox="0.00 0.00 911.00 275.00" xmlns="http://www.w3.org/2000/svg" xmlns:xlink="http://www.w3.org/1999/xlink">
<g id="graph0" class="graph" transform="scale(1 1) rotate(0) translate(4 271)">
<title>bluetooth_hfp</title>
<g id="clust1" class="cluster">
<title>cluster_ag</title>
<polygon fill="transparent" stroke="black" points="318.5,-8 318.5,-83 504.5,-83 504.5,-8 318.5,-8"/>
<text text-anchor="middle" x="411.5" y="-67.8" font-family="system-ui,-apple-system,Segoe UI,Roboto,Helvetica Neue,Arial,Noto Sans,sans-serif" font-size="14.00">Audio Gateway (Phone/Car)</text>
</g>
<g id="clust2" class="cluster">
<title>cluster_hf</title>
<polygon fill="transparent" stroke="black" points="8,-92 8,-259 895,-259 895,-92 8,-92"/>
<text text-anchor="middle" x="451.5" y="-243.8" font-family="system-ui,-apple-system,Segoe UI,Roboto,Helvetica Neue,Arial,Noto Sans,sans-serif" font-size="14.00">Zephyr HF Device</text>
</g>
<!-- init -->
<g id="node1" class="node">
<title>init</title>
<ellipse fill="white" stroke="#999999" cx="57" cy="-82" rx="1.8" ry="1.8"/>
</g>
<!-- AG -->
<g id="node2" class="node">
<title>AG</title>
<polygon fill="white" stroke="#999999" points="444.5,-52 377.5,-52 377.5,-16 444.5,-16 444.5,-52"/>
<text text-anchor="middle" x="411" y="-30.3" font-family="system-ui,-apple-system,Segoe UI,Roboto,Helvetica Neue,Arial,Noto Sans,sans-serif" font-size="14.00" fill="#404040">HFP AG</text>
</g>
<!-- BT_CTRL -->
<g id="node4" class="node">
<title>BT_CTRL</title>
<polygon fill="white" stroke="#999999" points="225,-136 150,-136 150,-100 225,-100 225,-136"/>
<text text-anchor="middle" x="187.5" y="-114.3" font-family="system-ui,-apple-system,Segoe UI,Roboto,Helvetica Neue,Arial,Noto Sans,sans-serif" font-size="14.00" fill="#404040">Controller</text>
</g>
<!-- AG&#45;&gt;BT_CTRL -->
<g id="edge1" class="edge">
<title>AG&#45;&gt;BT_CTRL</title>
<path fill="none" stroke="#999999" d="M377.46,-39.56C342.94,-46.22 287.37,-59.17 243,-80 234.89,-83.8 226.69,-88.8 219.2,-93.9"/>
<polygon fill="#999999" stroke="#999999" points="216.9,-91.24 210.78,-99.89 220.96,-96.95 216.9,-91.24"/>
<text text-anchor="middle" x="272" y="-92.8" font-family="SFMono-Regular,Menlo,Monaco,Consolas,Liberation Mono,Courier New,Courier,monospace" font-size="9.00">SCO Link</text>
<text text-anchor="middle" x="272" y="-82.8" font-family="SFMono-Regular,Menlo,Monaco,Consolas,Liberation Mono,Courier New,Courier,monospace" font-size="9.00">(BR/EDR)</text>
</g>
<!-- BT_HOST -->
<g id="node3" class="node">
<title>BT_HOST</title>
<polygon fill="white" stroke="#999999" points="98,-181 16,-181 16,-145 98,-145 98,-181"/>
<text text-anchor="middle" x="57" y="-159.3" font-family="system-ui,-apple-system,Segoe UI,Roboto,Helvetica Neue,Arial,Noto Sans,sans-serif" font-size="14.00" fill="#404040">Host Stack</text>
</g>
<!-- BT_HOST&#45;&gt;BT_CTRL -->
<g id="edge3" class="edge">
<title>BT_HOST&#45;&gt;BT_CTRL</title>
<path fill="none" stroke="#999999" d="M98.31,-148.89C111.57,-144.24 126.43,-139.04 140.11,-134.24"/>
<polygon fill="#999999" stroke="#999999" points="141.55,-137.45 149.83,-130.84 139.23,-130.84 141.55,-137.45"/>
<text text-anchor="middle" x="124" y="-143.8" font-family="SFMono-Regular,Menlo,Monaco,Consolas,Liberation Mono,Courier New,Courier,monospace" font-size="9.00">HCI</text>
</g>
<!-- HFP_APP -->
<g id="node5" class="node">
<title>HFP_APP</title>
<polygon fill="white" stroke="#999999" points="478,-200 344,-200 344,-164 478,-164 478,-200"/>
<text text-anchor="middle" x="411" y="-178.3" font-family="system-ui,-apple-system,Segoe UI,Roboto,Helvetica Neue,Arial,Noto Sans,sans-serif" font-size="14.00" fill="#404040">HFP HF Application</text>
</g>
<!-- BT_HOST&#45;&gt;HFP_APP -->
<g id="edge5" class="edge">
<title>BT_HOST&#45;&gt;HFP_APP</title>
<path fill="none" stroke="#999999" d="M98.01,-166.91C135.45,-170.4 192.96,-175.37 243,-178 272.53,-179.55 305.04,-180.5 333.46,-181.08"/>
<polygon fill="#999999" stroke="#999999" points="333.67,-184.59 343.73,-181.28 333.8,-177.59 333.67,-184.59"/>
<text text-anchor="middle" x="187.5" y="-178.8" font-family="SFMono-Regular,Menlo,Monaco,Consolas,Liberation Mono,Courier New,Courier,monospace" font-size="9.00">HF Callbacks</text>
</g>
<!-- BT_CTRL&#45;&gt;AG -->
<g id="edge2" class="edge">
<title>BT_CTRL&#45;&gt;AG</title>
<path fill="none" stroke="#999999" d="M194.3,-99.99C201.89,-79.76 217.34,-47.94 243,-34 281.14,-13.28 331.79,-16.8 367.27,-23.29"/>
<polygon fill="#999999" stroke="#999999" points="366.82,-26.76 377.31,-25.27 368.18,-19.9 366.82,-26.76"/>
<text text-anchor="middle" x="272" y="-46.8" font-family="SFMono-Regular,Menlo,Monaco,Consolas,Liberation Mono,Courier New,Courier,monospace" font-size="9.00">SCO Link</text>
<text text-anchor="middle" x="272" y="-36.8" font-family="SFMono-Regular,Menlo,Monaco,Consolas,Liberation Mono,Courier New,Courier,monospace" font-size="9.00">(BR/EDR)</text>
</g>
<!-- BT_CTRL&#45;&gt;BT_HOST -->
<g id="edge4" class="edge">
<title>BT_CTRL&#45;&gt;BT_HOST</title>
<path fill="none" stroke="#999999" d="M149.89,-116.93C138.75,-117.57 126.65,-119.26 116,-123 105.68,-126.62 95.49,-132.59 86.6,-138.83"/>
<polygon fill="#999999" stroke="#999999" points="84.47,-136.06 78.52,-144.82 88.64,-141.68 84.47,-136.06"/>
<text text-anchor="middle" x="124" y="-125.8" font-family="SFMono-Regular,Menlo,Monaco,Consolas,Liberation Mono,Courier New,Courier,monospace" font-size="9.00">HCI</text>
</g>
<!-- BT_CTRL&#45;&gt;HFP_APP -->
<g id="edge10" class="edge">
<title>BT_CTRL&#45;&gt;HFP_APP</title>
<path fill="none" stroke="#999999" d="M225.05,-107.42C248.43,-102.85 278.48,-101.26 301,-115 315.51,-123.85 305.73,-137.78 318.5,-149 323.33,-153.24 328.74,-156.95 334.47,-160.19"/>
<polygon fill="#999999" stroke="#999999" points="333.17,-163.46 343.67,-164.91 336.37,-157.24 333.17,-163.46"/>
<text text-anchor="middle" x="272" y="-127.8" font-family="SFMono-Regular,Menlo,Monaco,Consolas,Liberation Mono,Courier New,Courier,monospace" font-size="9.00">Peer voice</text>
<text text-anchor="middle" x="272" y="-117.8" font-family="SFMono-Regular,Menlo,Monaco,Consolas,Liberation Mono,Courier New,Courier,monospace" font-size="9.00">PCM input</text>
</g>
<!-- HFP_APP&#45;&gt;BT_HOST -->
<g id="edge6" class="edge">
<title>HFP_APP&#45;&gt;BT_HOST</title>
<path fill="none" stroke="#999999" d="M343.93,-190.3C291.17,-195.43 215.49,-199.41 150,-190 136.08,-188 121.32,-184.38 107.8,-180.42"/>
<polygon fill="#999999" stroke="#999999" points="108.79,-177.07 98.21,-177.5 106.76,-183.76 108.79,-177.07"/>
<text text-anchor="middle" x="187.5" y="-197.8" font-family="SFMono-Regular,Menlo,Monaco,Consolas,Liberation Mono,Courier New,Courier,monospace" font-size="9.00">HF APIs</text>
</g>
<!-- HFP_APP&#45;&gt;BT_CTRL -->
<g id="edge9" class="edge">
<title>HFP_APP&#45;&gt;BT_CTRL</title>
<path fill="none" stroke="#999999" d="M343.66,-166.79C312.82,-159.24 275.79,-149.5 243,-139 240.28,-138.13 237.51,-137.2 234.72,-136.23"/>
<polygon fill="#999999" stroke="#999999" points="235.83,-132.91 225.23,-132.82 233.46,-139.5 235.83,-132.91"/>
<text text-anchor="middle" x="272" y="-166.8" font-family="SFMono-Regular,Menlo,Monaco,Consolas,Liberation Mono,Courier New,Courier,monospace" font-size="9.00">Local voice</text>
<text text-anchor="middle" x="272" y="-156.8" font-family="SFMono-Regular,Menlo,Monaco,Consolas,Liberation Mono,Courier New,Courier,monospace" font-size="9.00">PCM output</text>
</g>
<!-- CODEC -->
<g id="node6" class="node">
<title>CODEC</title>
<polygon fill="white" stroke="#999999" points="720,-173 598,-173 598,-137 720,-137 720,-173"/>
<text text-anchor="middle" x="659" y="-151.3" font-family="system-ui,-apple-system,Segoe UI,Roboto,Helvetica Neue,Arial,Noto Sans,sans-serif" font-size="14.00" fill="#404040">Audio Subsystem</text>
</g>
<!-- HFP_APP&#45;&gt;CODEC -->
<g id="edge7" class="edge">
<title>HFP_APP&#45;&gt;CODEC</title>
<path fill="none" stroke="#999999" d="M478.3,-176.38C509.24,-173.58 546.54,-169.95 580,-166 582.65,-165.69 585.34,-165.36 588.06,-165.02"/>
<polygon fill="#999999" stroke="#999999" points="588.52,-168.49 597.99,-163.74 587.63,-161.55 588.52,-168.49"/>
<text text-anchor="middle" x="551" y="-173.8" font-family="SFMono-Regular,Menlo,Monaco,Consolas,Liberation Mono,Courier New,Courier,monospace" font-size="9.00">Peer voice</text>
</g>
<!-- CODEC&#45;&gt;HFP_APP -->
<g id="edge8" class="edge">
<title>CODEC&#45;&gt;HFP_APP</title>
<path fill="none" stroke="#999999" d="M597.9,-151.9C574.17,-151.48 546.73,-152.01 522,-155 509.68,-156.49 496.74,-158.89 484.25,-161.65"/>
<polygon fill="#999999" stroke="#999999" points="483.3,-158.28 474.34,-163.94 484.87,-165.1 483.3,-158.28"/>
<text text-anchor="middle" x="551" y="-157.8" font-family="SFMono-Regular,Menlo,Monaco,Consolas,Liberation Mono,Courier New,Courier,monospace" font-size="9.00">Local voice</text>
</g>
<!-- SPK -->
<g id="node7" class="node">
<title>SPK</title>
<polygon fill="white" stroke="#999999" points="887,-173 820,-173 820,-137 887,-137 887,-173"/>
<text text-anchor="middle" x="853.5" y="-151.3" font-family="system-ui,-apple-system,Segoe UI,Roboto,Helvetica Neue,Arial,Noto Sans,sans-serif" font-size="14.00" fill="#404040">Speaker</text>
</g>
<!-- CODEC&#45;&gt;SPK -->
<g id="edge11" class="edge">
<title>CODEC&#45;&gt;SPK</title>
<path fill="none" stroke="#999999" d="M720.12,-155C749.24,-155 783.52,-155 809.9,-155"/>
<polygon fill="#999999" stroke="#999999" points="809.95,-158.5 819.95,-155 809.95,-151.5 809.95,-158.5"/>
<text text-anchor="middle" x="770" y="-157.8" font-family="SFMono-Regular,Menlo,Monaco,Consolas,Liberation Mono,Courier New,Courier,monospace" font-size="9.00">Audio output</text>
</g>
<!-- MIC -->
<g id="node8" class="node">
<title>MIC</title>
<polygon fill="white" stroke="#999999" points="455,-140 367,-140 367,-104 455,-104 455,-140"/>
<text text-anchor="middle" x="411" y="-118.3" font-family="system-ui,-apple-system,Segoe UI,Roboto,Helvetica Neue,Arial,Noto Sans,sans-serif" font-size="14.00" fill="#404040">Microphone</text>
</g>
<!-- MIC&#45;&gt;CODEC -->
<g id="edge12" class="edge">
<title>MIC&#45;&gt;CODEC</title>
<path fill="none" stroke="#999999" d="M455.01,-124.2C489.07,-126.34 537.78,-130.28 580,-137 582.52,-137.4 585.08,-137.84 587.67,-138.3"/>
<polygon fill="#999999" stroke="#999999" points="587.21,-141.78 597.69,-140.22 588.53,-134.9 587.21,-141.78"/>
<text text-anchor="middle" x="551" y="-139.8" font-family="SFMono-Regular,Menlo,Monaco,Consolas,Liberation Mono,Courier New,Courier,monospace" font-size="9.00">Audio input</text>
</g>
</g>
</svg>
