<?xml version="1.0" encoding="UTF-8" standalone="no"?>
<!DOCTYPE svg PUBLIC "-//W3C//DTD SVG 1.1//EN"
 "http://www.w3.org/Graphics/SVG/1.1/DTD/svg11.dtd">
<!-- Generated by graphviz version 2.43.0 (0)
 -->
<!-- Title: %3 Pages: 1 -->
<svg width="224pt" height="390pt"
 viewBox="0.00 0.00 224.00 390.00" xmlns="http://www.w3.org/2000/svg" xmlns:xlink="http://www.w3.org/1999/xlink">
<g id="graph0" class="graph" transform="scale(1 1) rotate(0) translate(4 386)">
<title>%3</title>
<g id="clust1" class="cluster">
<title>cluster_host</title>
<polygon fill="lightgrey" stroke="lightgrey" points="43,-299 43,-374 173,-374 173,-299 43,-299"/>
<text text-anchor="middle" x="151" y="-358.8" font-family="system-ui,-apple-system,Segoe UI,Roboto,Helvetica Neue,Arial,Noto Sans,sans-serif" font-size="14.00">Host</text>
</g>
<g id="clust2" class="cluster">
<title>cluster_guest</title>
<polygon fill="lightgrey" stroke="lightgrey" points="8,-8 8,-227 208,-227 208,-8 8,-8"/>
<text text-anchor="middle" x="181.5" y="-211.8" font-family="system-ui,-apple-system,Segoe UI,Roboto,Helvetica Neue,Arial,Noto Sans,sans-serif" font-size="14.00">Guest</text>
</g>
<!-- virtio_device -->
<g id="node1" class="node">
<title>virtio_device</title>
<ellipse fill="white" stroke="#999999" cx="108" cy="-325" rx="57.39" ry="18"/>
<text text-anchor="middle" x="108" y="-321.3" font-family="system-ui,-apple-system,Segoe UI,Roboto,Helvetica Neue,Arial,Noto Sans,sans-serif" font-size="14.00" fill="#404040">virtio device</text>
</g>
<!-- transfer_method -->
<g id="node2" class="node">
<title>transfer_method</title>
<ellipse fill="white" stroke="#999999" cx="108" cy="-253" rx="93.68" ry="18"/>
<text text-anchor="middle" x="108" y="-249.3" font-family="system-ui,-apple-system,Segoe UI,Roboto,Helvetica Neue,Arial,Noto Sans,sans-serif" font-size="14.00" fill="#404040">virtio transfer method</text>
</g>
<!-- virtio_device&#45;&gt;transfer_method -->
<g id="edge1" class="edge">
<title>virtio_device&#45;&gt;transfer_method</title>
<path fill="none" stroke="#999999" d="M102.12,-307.05C101.3,-299.35 101.06,-290.03 101.39,-281.36"/>
<polygon fill="#999999" stroke="#999999" points="104.89,-281.49 102.09,-271.28 97.91,-281.01 104.89,-281.49"/>
</g>
<!-- transfer_method&#45;&gt;virtio_device -->
<g id="edge2" class="edge">
<title>transfer_method&#45;&gt;virtio_device</title>
<path fill="none" stroke="#999999" d="M113.91,-271.28C114.71,-279.03 114.94,-288.36 114.59,-297.01"/>
<polygon fill="#999999" stroke="#999999" points="111.09,-296.83 113.88,-307.05 118.08,-297.33 111.09,-296.83"/>
</g>
<!-- virtio_driver -->
<g id="node3" class="node">
<title>virtio_driver</title>
<ellipse fill="white" stroke="#999999" cx="108" cy="-178" rx="53.89" ry="18"/>
<text text-anchor="middle" x="108" y="-174.3" font-family="system-ui,-apple-system,Segoe UI,Roboto,Helvetica Neue,Arial,Noto Sans,sans-serif" font-size="14.00" fill="#404040">virtio driver</text>
</g>
<!-- transfer_method&#45;&gt;virtio_driver -->
<g id="edge3" class="edge">
<title>transfer_method&#45;&gt;virtio_driver</title>
<path fill="none" stroke="#999999" d="M113.84,-234.7C114.73,-226.18 114.97,-215.72 114.55,-206.17"/>
<polygon fill="#999999" stroke="#999999" points="118.02,-205.64 113.8,-195.92 111.04,-206.15 118.02,-205.64"/>
</g>
<!-- virtio_driver&#45;&gt;transfer_method -->
<g id="edge4" class="edge">
<title>virtio_driver&#45;&gt;transfer_method</title>
<path fill="none" stroke="#999999" d="M102.2,-195.92C101.28,-204.47 101.03,-215.06 101.45,-224.72"/>
<polygon fill="#999999" stroke="#999999" points="97.95,-224.98 102.16,-234.7 104.94,-224.48 97.95,-224.98"/>
</g>
<!-- specific_device_driver -->
<g id="node4" class="node">
<title>specific_device_driver</title>
<ellipse fill="white" stroke="#999999" cx="108" cy="-106" rx="92.08" ry="18"/>
<text text-anchor="middle" x="108" y="-102.3" font-family="system-ui,-apple-system,Segoe UI,Roboto,Helvetica Neue,Arial,Noto Sans,sans-serif" font-size="14.00" fill="#404040">specific device driver</text>
</g>
<!-- virtio_driver&#45;&gt;specific_device_driver -->
<g id="edge5" class="edge">
<title>virtio_driver&#45;&gt;specific_device_driver</title>
<path fill="none" stroke="#999999" d="M102.12,-160.05C101.3,-152.35 101.06,-143.03 101.39,-134.36"/>
<polygon fill="#999999" stroke="#999999" points="104.89,-134.49 102.09,-124.28 97.91,-134.01 104.89,-134.49"/>
</g>
<!-- specific_device_driver&#45;&gt;virtio_driver -->
<g id="edge6" class="edge">
<title>specific_device_driver&#45;&gt;virtio_driver</title>
<path fill="none" stroke="#999999" d="M113.91,-124.28C114.71,-132.03 114.94,-141.36 114.59,-150.01"/>
<polygon fill="#999999" stroke="#999999" points="111.09,-149.83 113.88,-160.05 118.08,-150.33 111.09,-149.83"/>
</g>
<!-- device_user -->
<g id="node5" class="node">
<title>device_user</title>
<ellipse fill="white" stroke="#999999" cx="108" cy="-34" rx="55.79" ry="18"/>
<text text-anchor="middle" x="108" y="-30.3" font-family="system-ui,-apple-system,Segoe UI,Roboto,Helvetica Neue,Arial,Noto Sans,sans-serif" font-size="14.00" fill="#404040">device user</text>
</g>
<!-- specific_device_driver&#45;&gt;device_user -->
<g id="edge7" class="edge">
<title>specific_device_driver&#45;&gt;device_user</title>
<path fill="none" stroke="#999999" d="M102.08,-87.7C101.29,-79.98 101.06,-70.71 101.4,-62.11"/>
<polygon fill="#999999" stroke="#999999" points="104.9,-62.32 102.1,-52.1 97.92,-61.84 104.9,-62.32"/>
</g>
<!-- device_user&#45;&gt;specific_device_driver -->
<g id="edge8" class="edge">
<title>device_user&#45;&gt;specific_device_driver</title>
<path fill="none" stroke="#999999" d="M113.9,-52.1C114.7,-59.79 114.94,-69.05 114.6,-77.67"/>
<polygon fill="#999999" stroke="#999999" points="111.11,-77.48 113.92,-87.7 118.09,-77.96 111.11,-77.48"/>
</g>
</g>
</svg>
