<?xml version="1.0" encoding="UTF-8" standalone="no"?>
<!DOCTYPE svg PUBLIC "-//W3C//DTD SVG 1.1//EN"
 "http://www.w3.org/Graphics/SVG/1.1/DTD/svg11.dtd">
<!-- Generated by graphviz version 2.43.0 (0)
 -->
<!-- Title: gaf Pages: 1 -->
<svg width="1023pt" height="385pt"
 viewBox="0.00 0.00 1023.00 385.00" xmlns="http://www.w3.org/2000/svg" xmlns:xlink="http://www.w3.org/1999/xlink">
<g id="graph0" class="graph" transform="scale(1 1) rotate(0) translate(4 381)">
<title>gaf</title>
<g id="clust1" class="cluster">
<title>hap_layer</title>
<polygon fill="transparent" stroke="black" points="166,-293 166,-369 358,-369 358,-293 166,-293"/>
<text text-anchor="middle" x="262" y="-353.8" font-family="system-ui,-apple-system,Segoe UI,Roboto,Helvetica Neue,Arial,Noto Sans,sans-serif" font-size="14.00">HAP</text>
</g>
<g id="clust2" class="cluster">
<title>pbp_layer</title>
<polygon fill="transparent" stroke="black" points="366,-293 366,-369 436,-369 436,-293 366,-293"/>
<text text-anchor="middle" x="401" y="-353.8" font-family="system-ui,-apple-system,Segoe UI,Roboto,Helvetica Neue,Arial,Noto Sans,sans-serif" font-size="14.00">PBP</text>
</g>
<g id="clust3" class="cluster">
<title>tmap_layer</title>
<polygon fill="transparent" stroke="black" points="444,-293 444,-369 520,-369 520,-293 444,-293"/>
<text text-anchor="middle" x="482" y="-353.8" font-family="system-ui,-apple-system,Segoe UI,Roboto,Helvetica Neue,Arial,Noto Sans,sans-serif" font-size="14.00">TMAP</text>
</g>
<g id="clust4" class="cluster">
<title>gmap_layer</title>
<polygon fill="transparent" stroke="black" points="528,-293 528,-369 745,-369 745,-293 528,-293"/>
<text text-anchor="middle" x="636.5" y="-353.8" font-family="system-ui,-apple-system,Segoe UI,Roboto,Helvetica Neue,Arial,Noto Sans,sans-serif" font-size="14.00">GMAP</text>
</g>
<g id="clust5" class="cluster">
<title>gaf_layer</title>
<polygon fill="transparent" stroke="black" points="8,-8 8,-285 1007,-285 1007,-8 8,-8"/>
<text text-anchor="middle" x="507.5" y="-269.8" font-family="system-ui,-apple-system,Segoe UI,Roboto,Helvetica Neue,Arial,Noto Sans,sans-serif" font-size="14.00">Generic Audio Framework</text>
</g>
<g id="clust6" class="cluster">
<title>transition_and_coordination_control_layer</title>
<polygon fill="transparent" stroke="black" stroke-dasharray="5,2" points="334,-139 334,-254 564,-254 564,-139 334,-139"/>
<text text-anchor="middle" x="449" y="-238.8" font-family="system-ui,-apple-system,Segoe UI,Roboto,Helvetica Neue,Arial,Noto Sans,sans-serif" font-size="14.00">Transition and Coordination Control</text>
</g>
<g id="clust7" class="cluster">
<title>cap_layer</title>
<polygon fill="transparent" stroke="black" points="447,-147 447,-223 517,-223 517,-147 447,-147"/>
<text text-anchor="middle" x="482" y="-207.8" font-family="system-ui,-apple-system,Segoe UI,Roboto,Helvetica Neue,Arial,Noto Sans,sans-serif" font-size="14.00">CAP</text>
</g>
<g id="clust8" class="cluster">
<title>csip_layer</title>
<polygon fill="transparent" stroke="black" points="369,-147 369,-223 439,-223 439,-147 369,-147"/>
<text text-anchor="middle" x="404" y="-207.8" font-family="system-ui,-apple-system,Segoe UI,Roboto,Helvetica Neue,Arial,Noto Sans,sans-serif" font-size="14.00">CSIP</text>
</g>
<g id="clust9" class="cluster">
<title>stream_control_layer</title>
<polygon fill="transparent" stroke="black" stroke-dasharray="5,2" points="16,-16 16,-131 292,-131 292,-16 16,-16"/>
<text text-anchor="middle" x="154" y="-115.8" font-family="system-ui,-apple-system,Segoe UI,Roboto,Helvetica Neue,Arial,Noto Sans,sans-serif" font-size="14.00">Stream Control</text>
</g>
<g id="clust10" class="cluster">
<title>bap_layer</title>
<polygon fill="transparent" stroke="black" points="24,-24 24,-100 284,-100 284,-24 24,-24"/>
<text text-anchor="middle" x="154" y="-84.8" font-family="system-ui,-apple-system,Segoe UI,Roboto,Helvetica Neue,Arial,Noto Sans,sans-serif" font-size="14.00">BAP</text>
</g>
<g id="clust11" class="cluster">
<title>content_control_layer</title>
<polygon fill="transparent" stroke="black" stroke-dasharray="5,2" points="300,-16 300,-131 699,-131 699,-16 300,-16"/>
<text text-anchor="middle" x="499.5" y="-115.8" font-family="system-ui,-apple-system,Segoe UI,Roboto,Helvetica Neue,Arial,Noto Sans,sans-serif" font-size="14.00">Content Control</text>
</g>
<g id="clust12" class="cluster">
<title>mcp_layer</title>
<polygon fill="transparent" stroke="black" points="447,-24 447,-100 691,-100 691,-24 447,-24"/>
<text text-anchor="middle" x="569" y="-84.8" font-family="system-ui,-apple-system,Segoe UI,Roboto,Helvetica Neue,Arial,Noto Sans,sans-serif" font-size="14.00">MCP</text>
</g>
<g id="clust13" class="cluster">
<title>ccp_layer</title>
<polygon fill="transparent" stroke="black" points="308,-24 308,-100 439,-100 439,-24 308,-24"/>
<text text-anchor="middle" x="373.5" y="-84.8" font-family="system-ui,-apple-system,Segoe UI,Roboto,Helvetica Neue,Arial,Noto Sans,sans-serif" font-size="14.00">CCP</text>
</g>
<g id="clust14" class="cluster">
<title>rendering_and_capture_control_layer</title>
<polygon fill="transparent" stroke="black" stroke-dasharray="5,2" points="707,-16 707,-131 999,-131 999,-16 707,-16"/>
<text text-anchor="middle" x="853" y="-115.8" font-family="system-ui,-apple-system,Segoe UI,Roboto,Helvetica Neue,Arial,Noto Sans,sans-serif" font-size="14.00">Rendering and Capture Control</text>
</g>
<g id="clust15" class="cluster">
<title>micp_layer</title>
<polygon fill="transparent" stroke="black" points="856,-24 856,-100 991,-100 991,-24 856,-24"/>
<text text-anchor="middle" x="923.5" y="-84.8" font-family="system-ui,-apple-system,Segoe UI,Roboto,Helvetica Neue,Arial,Noto Sans,sans-serif" font-size="14.00">MICP</text>
</g>
<g id="clust16" class="cluster">
<title>vcp_layer</title>
<polygon fill="transparent" stroke="black" points="715,-24 715,-100 848,-100 848,-24 715,-24"/>
<text text-anchor="middle" x="781.5" y="-84.8" font-family="system-ui,-apple-system,Segoe UI,Roboto,Helvetica Neue,Arial,Noto Sans,sans-serif" font-size="14.00">VCP</text>
</g>
<!-- HAS_H -->
<g id="node1" class="node">
<title>HAS_H</title>
<polygon fill="white" stroke="#999999" points="296,-301.5 296,-337.5 350,-337.5 350,-301.5 296,-301.5"/>
<text text-anchor="middle" x="323" y="-315.8" font-family="system-ui,-apple-system,Segoe UI,Roboto,Helvetica Neue,Arial,Noto Sans,sans-serif" font-size="14.00" fill="#404040">has.h</text>
</g>
<!-- CAP_H -->
<g id="node10" class="node">
<title>CAP_H</title>
<polygon fill="white" stroke="#999999" points="455,-155.5 455,-191.5 509,-191.5 509,-155.5 455,-155.5"/>
<text text-anchor="middle" x="482" y="-169.8" font-family="system-ui,-apple-system,Segoe UI,Roboto,Helvetica Neue,Arial,Noto Sans,sans-serif" font-size="14.00" fill="#404040">cap.h</text>
</g>
<!-- HAS_H&#45;&gt;CAP_H -->
<!-- BAS_H -->
<g id="node2" class="node">
<title>BAS_H</title>
<polygon fill="white" stroke="#999999" points="235,-301.5 235,-337.5 289,-337.5 289,-301.5 235,-301.5"/>
<text text-anchor="middle" x="262" y="-315.8" font-family="system-ui,-apple-system,Segoe UI,Roboto,Helvetica Neue,Arial,Noto Sans,sans-serif" font-size="14.00" fill="#404040">bas.h</text>
</g>
<!-- IAS_H -->
<g id="node3" class="node">
<title>IAS_H</title>
<polygon fill="white" stroke="#999999" points="174,-301.5 174,-337.5 228,-337.5 228,-301.5 174,-301.5"/>
<text text-anchor="middle" x="201" y="-315.8" font-family="system-ui,-apple-system,Segoe UI,Roboto,Helvetica Neue,Arial,Noto Sans,sans-serif" font-size="14.00" fill="#404040">ias.h</text>
</g>
<!-- PBP_H -->
<g id="node4" class="node">
<title>PBP_H</title>
<polygon fill="white" stroke="#999999" points="374,-301.5 374,-337.5 428,-337.5 428,-301.5 374,-301.5"/>
<text text-anchor="middle" x="401" y="-315.8" font-family="system-ui,-apple-system,Segoe UI,Roboto,Helvetica Neue,Arial,Noto Sans,sans-serif" font-size="14.00" fill="#404040">pbp.h</text>
</g>
<!-- PBP_H&#45;&gt;CAP_H -->
<!-- TMAP_H -->
<g id="node5" class="node">
<title>TMAP_H</title>
<polygon fill="white" stroke="#999999" points="452.5,-301.5 452.5,-337.5 511.5,-337.5 511.5,-301.5 452.5,-301.5"/>
<text text-anchor="middle" x="482" y="-315.8" font-family="system-ui,-apple-system,Segoe UI,Roboto,Helvetica Neue,Arial,Noto Sans,sans-serif" font-size="14.00" fill="#404040">tmap.h</text>
</g>
<!-- TMAP_H&#45;&gt;CAP_H -->
<!-- GMAP_H -->
<g id="node6" class="node">
<title>GMAP_H</title>
<polygon fill="white" stroke="#999999" points="675,-301.5 675,-337.5 737,-337.5 737,-301.5 675,-301.5"/>
<text text-anchor="middle" x="706" y="-315.8" font-family="system-ui,-apple-system,Segoe UI,Roboto,Helvetica Neue,Arial,Noto Sans,sans-serif" font-size="14.00" fill="#404040">gmap.h</text>
</g>
<!-- GMAP_H&#45;&gt;CAP_H -->
<!-- GMAP_PRESET_H -->
<g id="node7" class="node">
<title>GMAP_PRESET_H</title>
<polygon fill="white" stroke="#999999" points="536,-301.5 536,-337.5 668,-337.5 668,-301.5 536,-301.5"/>
<text text-anchor="middle" x="602" y="-315.8" font-family="system-ui,-apple-system,Segoe UI,Roboto,Helvetica Neue,Arial,Noto Sans,sans-serif" font-size="14.00" fill="#404040">gmap_lc3_preset.h</text>
</g>
<!-- GMAP_PRESET_H&#45;&gt;CAP_H -->
<!-- AUDIO_H -->
<g id="node8" class="node">
<title>AUDIO_H</title>
<polygon fill="white" stroke="#999999" points="211.5,-155.5 211.5,-191.5 272.5,-191.5 272.5,-155.5 211.5,-155.5"/>
<text text-anchor="middle" x="242" y="-169.8" font-family="system-ui,-apple-system,Segoe UI,Roboto,Helvetica Neue,Arial,Noto Sans,sans-serif" font-size="14.00" fill="#404040">audio.h</text>
</g>
<!-- LC3_H -->
<g id="node9" class="node">
<title>LC3_H</title>
<polygon fill="white" stroke="#999999" points="43,-155.5 43,-191.5 97,-191.5 97,-155.5 43,-155.5"/>
<text text-anchor="middle" x="70" y="-169.8" font-family="system-ui,-apple-system,Segoe UI,Roboto,Helvetica Neue,Arial,Noto Sans,sans-serif" font-size="14.00" fill="#404040">lc3.h</text>
</g>
<!-- PACS_H -->
<g id="node12" class="node">
<title>PACS_H</title>
<polygon fill="white" stroke="#999999" points="32,-32.5 32,-68.5 88,-68.5 88,-32.5 32,-32.5"/>
<text text-anchor="middle" x="60" y="-46.8" font-family="system-ui,-apple-system,Segoe UI,Roboto,Helvetica Neue,Arial,Noto Sans,sans-serif" font-size="14.00" fill="#404040">pacs.h</text>
</g>
<!-- CAP_H&#45;&gt;PACS_H -->
<!-- BAP_H -->
<g id="node13" class="node">
<title>BAP_H</title>
<polygon fill="white" stroke="#999999" points="222,-32.5 222,-68.5 276,-68.5 276,-32.5 222,-32.5"/>
<text text-anchor="middle" x="249" y="-46.8" font-family="system-ui,-apple-system,Segoe UI,Roboto,Helvetica Neue,Arial,Noto Sans,sans-serif" font-size="14.00" fill="#404040">bap.h</text>
</g>
<!-- CAP_H&#45;&gt;BAP_H -->
<!-- BAP_PRESET_H -->
<g id="node14" class="node">
<title>BAP_PRESET_H</title>
<polygon fill="white" stroke="#999999" points="95,-32.5 95,-68.5 215,-68.5 215,-32.5 95,-32.5"/>
<text text-anchor="middle" x="155" y="-46.8" font-family="system-ui,-apple-system,Segoe UI,Roboto,Helvetica Neue,Arial,Noto Sans,sans-serif" font-size="14.00" fill="#404040">bap_lc3_preset.h</text>
</g>
<!-- CAP_H&#45;&gt;BAP_PRESET_H -->
<!-- MCS_H -->
<g id="node15" class="node">
<title>MCS_H</title>
<polygon fill="white" stroke="#999999" points="455,-32.5 455,-68.5 509,-68.5 509,-32.5 455,-32.5"/>
<text text-anchor="middle" x="482" y="-46.8" font-family="system-ui,-apple-system,Segoe UI,Roboto,Helvetica Neue,Arial,Noto Sans,sans-serif" font-size="14.00" fill="#404040">mcs.h</text>
</g>
<!-- CAP_H&#45;&gt;MCS_H -->
<!-- MCC_H -->
<g id="node16" class="node">
<title>MCC_H</title>
<polygon fill="white" stroke="#999999" points="629,-32.5 629,-68.5 683,-68.5 683,-32.5 629,-32.5"/>
<text text-anchor="middle" x="656" y="-46.8" font-family="system-ui,-apple-system,Segoe UI,Roboto,Helvetica Neue,Arial,Noto Sans,sans-serif" font-size="14.00" fill="#404040">mcc.h</text>
</g>
<!-- CAP_H&#45;&gt;MCC_H -->
<!-- MP_H -->
<g id="node17" class="node">
<title>MP_H</title>
<polygon fill="white" stroke="#999999" points="516.5,-32.5 516.5,-68.5 621.5,-68.5 621.5,-32.5 516.5,-32.5"/>
<text text-anchor="middle" x="569" y="-46.8" font-family="system-ui,-apple-system,Segoe UI,Roboto,Helvetica Neue,Arial,Noto Sans,sans-serif" font-size="14.00" fill="#404040">media_proxy.h</text>
</g>
<!-- CAP_H&#45;&gt;MP_H -->
<!-- CCP_H -->
<g id="node18" class="node">
<title>CCP_H</title>
<polygon fill="white" stroke="#999999" points="377,-32.5 377,-68.5 431,-68.5 431,-32.5 377,-32.5"/>
<text text-anchor="middle" x="404" y="-46.8" font-family="system-ui,-apple-system,Segoe UI,Roboto,Helvetica Neue,Arial,Noto Sans,sans-serif" font-size="14.00" fill="#404040">ccp.h</text>
</g>
<!-- CAP_H&#45;&gt;CCP_H -->
<!-- TBS_H -->
<g id="node19" class="node">
<title>TBS_H</title>
<polygon fill="white" stroke="#999999" points="316,-32.5 316,-68.5 370,-68.5 370,-32.5 316,-32.5"/>
<text text-anchor="middle" x="343" y="-46.8" font-family="system-ui,-apple-system,Segoe UI,Roboto,Helvetica Neue,Arial,Noto Sans,sans-serif" font-size="14.00" fill="#404040">tbs.h</text>
</g>
<!-- CAP_H&#45;&gt;TBS_H -->
<!-- MICP_H -->
<g id="node20" class="node">
<title>MICP_H</title>
<polygon fill="white" stroke="#999999" points="925.5,-32.5 925.5,-68.5 982.5,-68.5 982.5,-32.5 925.5,-32.5"/>
<text text-anchor="middle" x="954" y="-46.8" font-family="system-ui,-apple-system,Segoe UI,Roboto,Helvetica Neue,Arial,Noto Sans,sans-serif" font-size="14.00" fill="#404040">micp.h</text>
</g>
<!-- CAP_H&#45;&gt;MICP_H -->
<!-- VCP_H -->
<g id="node22" class="node">
<title>VCP_H</title>
<polygon fill="white" stroke="#999999" points="786,-32.5 786,-68.5 840,-68.5 840,-32.5 786,-32.5"/>
<text text-anchor="middle" x="813" y="-46.8" font-family="system-ui,-apple-system,Segoe UI,Roboto,Helvetica Neue,Arial,Noto Sans,sans-serif" font-size="14.00" fill="#404040">vcp.h</text>
</g>
<!-- CAP_H&#45;&gt;VCP_H -->
<!-- CSIP_H -->
<g id="node11" class="node">
<title>CSIP_H</title>
<polygon fill="white" stroke="#999999" points="377,-155.5 377,-191.5 431,-191.5 431,-155.5 377,-155.5"/>
<text text-anchor="middle" x="404" y="-169.8" font-family="system-ui,-apple-system,Segoe UI,Roboto,Helvetica Neue,Arial,Noto Sans,sans-serif" font-size="14.00" fill="#404040">csip.h</text>
</g>
<!-- CSIP_H&#45;&gt;PACS_H -->
<!-- CSIP_H&#45;&gt;BAP_H -->
<!-- CSIP_H&#45;&gt;BAP_PRESET_H -->
<!-- CSIP_H&#45;&gt;MCS_H -->
<!-- CSIP_H&#45;&gt;MCC_H -->
<!-- CSIP_H&#45;&gt;MP_H -->
<!-- CSIP_H&#45;&gt;CCP_H -->
<!-- CSIP_H&#45;&gt;TBS_H -->
<!-- CSIP_H&#45;&gt;MICP_H -->
<!-- CSIP_H&#45;&gt;VCP_H -->
<!-- AICS_H -->
<g id="node21" class="node">
<title>AICS_H</title>
<polygon fill="white" stroke="#999999" points="864,-32.5 864,-68.5 918,-68.5 918,-32.5 864,-32.5"/>
<text text-anchor="middle" x="891" y="-46.8" font-family="system-ui,-apple-system,Segoe UI,Roboto,Helvetica Neue,Arial,Noto Sans,sans-serif" font-size="14.00" fill="#404040">aics.h</text>
</g>
<!-- VOCS_H -->
<g id="node23" class="node">
<title>VOCS_H</title>
<polygon fill="white" stroke="#999999" points="723,-32.5 723,-68.5 779,-68.5 779,-32.5 723,-32.5"/>
<text text-anchor="middle" x="751" y="-46.8" font-family="system-ui,-apple-system,Segoe UI,Roboto,Helvetica Neue,Arial,Noto Sans,sans-serif" font-size="14.00" fill="#404040">vocs.h</text>
</g>
</g>
</svg>
