<?xml version="1.0" encoding="UTF-8" standalone="no"?>
<!DOCTYPE svg PUBLIC "-//W3C//DTD SVG 1.1//EN"
 "http://www.w3.org/Graphics/SVG/1.1/DTD/svg11.dtd">
<!-- Generated by graphviz version 2.43.0 (0)
 -->
<!-- Title: smf_flat Pages: 1 -->
<svg width="161pt" height="172pt"
 viewBox="0.00 0.00 161.16 171.60" xmlns="http://www.w3.org/2000/svg" xmlns:xlink="http://www.w3.org/1999/xlink">
<g id="graph0" class="graph" transform="scale(1 1) rotate(0) translate(4 167.6)">
<title>smf_flat</title>
<!-- init -->
<g id="node1" class="node">
<title>init</title>
<ellipse fill="white" stroke="#999999" cx="50.16" cy="-161.8" rx="1.8" ry="1.8"/>
</g>
<!-- STATE_S0 -->
<g id="node2" class="node">
<title>STATE_S0</title>
<polygon fill="white" stroke="#999999" points="91.66,-123 8.66,-123 8.66,-87 91.66,-87 91.66,-123"/>
<text text-anchor="middle" x="50.16" y="-101.3" font-family="system-ui,-apple-system,Segoe UI,Roboto,Helvetica Neue,Arial,Noto Sans,sans-serif" font-size="14.00" fill="#404040">STATE_S0</text>
</g>
<!-- init&#45;&gt;STATE_S0 -->
<g id="edge1" class="edge">
<title>init&#45;&gt;STATE_S0</title>
<path fill="none" stroke="#999999" d="M50.16,-159.85C50.16,-156.49 50.16,-144.73 50.16,-133.05"/>
<polygon fill="#999999" stroke="#999999" points="53.67,-133.02 50.16,-123.02 46.67,-133.02 53.67,-133.02"/>
</g>
<!-- STATE_S1 -->
<g id="node3" class="node">
<title>STATE_S1</title>
<polygon fill="white" stroke="#999999" points="91.66,-36 8.66,-36 8.66,0 91.66,0 91.66,-36"/>
<text text-anchor="middle" x="50.16" y="-14.3" font-family="system-ui,-apple-system,Segoe UI,Roboto,Helvetica Neue,Arial,Noto Sans,sans-serif" font-size="14.00" fill="#404040">STATE_S1</text>
</g>
<!-- STATE_S0&#45;&gt;STATE_S1 -->
<g id="edge2" class="edge">
<title>STATE_S0&#45;&gt;STATE_S1</title>
<path fill="none" stroke="#999999" d="M17.61,-86.79C11.39,-81.91 5.72,-75.99 2.16,-69 -2.72,-59.39 1.69,-50.39 9.49,-42.74"/>
<polygon fill="#999999" stroke="#999999" points="11.99,-45.21 17.44,-36.12 7.51,-39.83 11.99,-45.21"/>
<text text-anchor="middle" x="39.66" y="-57.8" font-family="SFMono-Regular,Menlo,Monaco,Consolas,Liberation Mono,Courier New,Courier,monospace" font-size="14.00">BTN EVENT</text>
</g>
<!-- STATE_S1&#45;&gt;STATE_S0 -->
<g id="edge3" class="edge">
<title>STATE_S1&#45;&gt;STATE_S0</title>
<path fill="none" stroke="#999999" d="M67.81,-36.39C75.1,-45.72 81.05,-57.61 77.16,-69 76.08,-72.2 74.56,-75.33 72.8,-78.32"/>
<polygon fill="#999999" stroke="#999999" points="69.74,-76.6 66.97,-86.82 75.52,-80.56 69.74,-76.6"/>
<text text-anchor="middle" x="115.66" y="-57.8" font-family="SFMono-Regular,Menlo,Monaco,Consolas,Liberation Mono,Courier New,Courier,monospace" font-size="14.00">BTN EVENT</text>
</g>
</g>
</svg>
