<?xml version="1.0" encoding="UTF-8" standalone="no"?>
<!DOCTYPE svg PUBLIC "-//W3C//DTD SVG 1.1//EN"
 "http://www.w3.org/Graphics/SVG/1.1/DTD/svg11.dtd">
<!-- Generated by graphviz version 2.43.0 (0)
 -->
<!-- Title: %3 Pages: 1 -->
<svg width="596pt" height="269pt"
 viewBox="0.00 0.00 595.56 269.00" xmlns="http://www.w3.org/2000/svg" xmlns:xlink="http://www.w3.org/1999/xlink">
<g id="graph0" class="graph" transform="scale(1 1) rotate(0) translate(4 265)">
<title>%3</title>
<!-- images -->
<g id="node1" class="node">
<title>images</title>
<polygon fill="white" stroke="#999999" points="332.89,-261 260.89,-261 260.89,-223 332.89,-223 332.89,-261"/>
<text text-anchor="middle" x="296.89" y="-245.8" font-family="system-ui,-apple-system,Segoe UI,Roboto,Helvetica Neue,Arial,Noto Sans,sans-serif" font-size="14.00" fill="#404040">.png, .jpg</text>
<text text-anchor="middle" x="296.89" y="-230.8" font-family="system-ui,-apple-system,Segoe UI,Roboto,Helvetica Neue,Arial,Noto Sans,sans-serif" font-size="14.00" fill="#404040">images</text>
</g>
<!-- sphinx -->
<g id="node8" class="node">
<title>sphinx</title>
<ellipse fill="white" stroke="#999999" cx="437.48" cy="-130" rx="48.17" ry="26.74"/>
<text text-anchor="middle" x="437.48" y="-133.8" font-family="system-ui,-apple-system,Segoe UI,Roboto,Helvetica Neue,Arial,Noto Sans,sans-serif" font-size="14.00" fill="#404040">sphinx +</text>
<text text-anchor="middle" x="437.48" y="-118.8" font-family="system-ui,-apple-system,Segoe UI,Roboto,Helvetica Neue,Arial,Noto Sans,sans-serif" font-size="14.00" fill="#404040">docutils</text>
</g>
<!-- images&#45;&gt;sphinx -->
<g id="edge1" class="edge">
<title>images&#45;&gt;sphinx</title>
<path fill="none" stroke="#999999" d="M332.95,-226.48C339.97,-222.79 347.11,-218.57 353.39,-214 374.1,-198.93 394.38,-178.57 409.71,-161.68"/>
<polygon fill="#999999" stroke="#999999" points="412.35,-163.98 416.4,-154.19 407.13,-159.32 412.35,-163.98"/>
</g>
<!-- rst -->
<g id="node2" class="node">
<title>rst</title>
<polygon fill="white" stroke="#999999" points="353.39,-205 240.39,-205 240.39,-167 353.39,-167 353.39,-205"/>
<text text-anchor="middle" x="296.89" y="-189.8" font-family="system-ui,-apple-system,Segoe UI,Roboto,Helvetica Neue,Arial,Noto Sans,sans-serif" font-size="14.00" fill="#404040">restructuredText</text>
<text text-anchor="middle" x="296.89" y="-174.8" font-family="system-ui,-apple-system,Segoe UI,Roboto,Helvetica Neue,Arial,Noto Sans,sans-serif" font-size="14.00" fill="#404040">files</text>
</g>
<!-- rst&#45;&gt;sphinx -->
<g id="edge2" class="edge">
<title>rst&#45;&gt;sphinx</title>
<path fill="none" stroke="#999999" d="M345.2,-166.88C359.21,-161.22 374.57,-155.02 388.62,-149.34"/>
<polygon fill="#999999" stroke="#999999" points="390.14,-152.5 398.11,-145.51 387.52,-146.01 390.14,-152.5"/>
</g>
<!-- conf -->
<g id="node3" class="node">
<title>conf</title>
<polygon fill="white" stroke="#999999" points="343.89,-149 249.89,-149 249.89,-111 343.89,-111 343.89,-149"/>
<text text-anchor="middle" x="296.89" y="-133.8" font-family="system-ui,-apple-system,Segoe UI,Roboto,Helvetica Neue,Arial,Noto Sans,sans-serif" font-size="14.00" fill="#404040">conf.py</text>
<text text-anchor="middle" x="296.89" y="-118.8" font-family="system-ui,-apple-system,Segoe UI,Roboto,Helvetica Neue,Arial,Noto Sans,sans-serif" font-size="14.00" fill="#404040">configuration</text>
</g>
<!-- conf&#45;&gt;sphinx -->
<g id="edge3" class="edge">
<title>conf&#45;&gt;sphinx</title>
<path fill="none" stroke="#999999" d="M344.04,-130C355.24,-130 367.36,-130 379.02,-130"/>
<polygon fill="#999999" stroke="#999999" points="379.11,-133.5 389.11,-130 379.11,-126.5 379.11,-133.5"/>
</g>
<!-- rtd -->
<g id="node4" class="node">
<title>rtd</title>
<polygon fill="white" stroke="#999999" points="346.89,-93 246.89,-93 246.89,-55 346.89,-55 346.89,-93"/>
<text text-anchor="middle" x="296.89" y="-77.8" font-family="system-ui,-apple-system,Segoe UI,Roboto,Helvetica Neue,Arial,Noto Sans,sans-serif" font-size="14.00" fill="#404040">read&#45;the&#45;docs</text>
<text text-anchor="middle" x="296.89" y="-62.8" font-family="system-ui,-apple-system,Segoe UI,Roboto,Helvetica Neue,Arial,Noto Sans,sans-serif" font-size="14.00" fill="#404040">theme</text>
</g>
<!-- rtd&#45;&gt;sphinx -->
<g id="edge7" class="edge">
<title>rtd&#45;&gt;sphinx</title>
<path fill="none" stroke="#999999" d="M345.2,-93.12C359.21,-98.78 374.57,-104.98 388.62,-110.66"/>
<polygon fill="#999999" stroke="#999999" points="387.52,-113.99 398.11,-114.49 390.14,-107.5 387.52,-113.99"/>
</g>
<!-- header -->
<g id="node5" class="node">
<title>header</title>
<polygon fill="white" stroke="#999999" points="80,-38 0,-38 0,0 80,0 80,-38"/>
<text text-anchor="middle" x="40" y="-22.8" font-family="system-ui,-apple-system,Segoe UI,Roboto,Helvetica Neue,Arial,Noto Sans,sans-serif" font-size="14.00" fill="#404040">c header</text>
<text text-anchor="middle" x="40" y="-7.8" font-family="system-ui,-apple-system,Segoe UI,Roboto,Helvetica Neue,Arial,Noto Sans,sans-serif" font-size="14.00" fill="#404040">comments</text>
</g>
<!-- doxygen -->
<g id="node9" class="node">
<title>doxygen</title>
<ellipse fill="white" stroke="#999999" cx="160.2" cy="-19" rx="44.39" ry="18"/>
<text text-anchor="middle" x="160.2" y="-15.3" font-family="system-ui,-apple-system,Segoe UI,Roboto,Helvetica Neue,Arial,Noto Sans,sans-serif" font-size="14.00" fill="#404040">doxygen</text>
</g>
<!-- header&#45;&gt;doxygen -->
<g id="edge4" class="edge">
<title>header&#45;&gt;doxygen</title>
<path fill="none" stroke="#999999" d="M80.03,-19C88.25,-19 97.05,-19 105.69,-19"/>
<polygon fill="#999999" stroke="#999999" points="105.72,-22.5 115.72,-19 105.72,-15.5 105.72,-22.5"/>
</g>
<!-- xml -->
<g id="node6" class="node">
<title>xml</title>
<polygon fill="white" stroke="#999999" points="323.89,-37 269.89,-37 269.89,-1 323.89,-1 323.89,-37"/>
<text text-anchor="middle" x="296.89" y="-15.3" font-family="system-ui,-apple-system,Segoe UI,Roboto,Helvetica Neue,Arial,Noto Sans,sans-serif" font-size="14.00" fill="#404040">XML</text>
</g>
<!-- xml&#45;&gt;sphinx -->
<g id="edge6" class="edge">
<title>xml&#45;&gt;sphinx</title>
<path fill="none" stroke="#999999" d="M324.06,-29.52C333.69,-33.94 344.42,-39.57 353.39,-46 374.21,-60.92 394.49,-81.27 409.8,-98.21"/>
<polygon fill="#999999" stroke="#999999" points="407.21,-100.56 416.47,-105.71 412.44,-95.91 407.21,-100.56"/>
</g>
<!-- html -->
<g id="node7" class="node">
<title>html</title>
<polygon fill="white" stroke="#999999" points="587.56,-149 521.56,-149 521.56,-111 587.56,-111 587.56,-149"/>
<text text-anchor="middle" x="554.56" y="-133.8" font-family="system-ui,-apple-system,Segoe UI,Roboto,Helvetica Neue,Arial,Noto Sans,sans-serif" font-size="14.00" fill="#404040">HTML</text>
<text text-anchor="middle" x="554.56" y="-118.8" font-family="system-ui,-apple-system,Segoe UI,Roboto,Helvetica Neue,Arial,Noto Sans,sans-serif" font-size="14.00" fill="#404040">web site</text>
</g>
<!-- sphinx&#45;&gt;html -->
<g id="edge8" class="edge">
<title>sphinx&#45;&gt;html</title>
<path fill="none" stroke="#999999" d="M485.62,-130C494.08,-130 502.86,-130 511.18,-130"/>
<polygon fill="#999999" stroke="#999999" points="511.42,-133.5 521.42,-130 511.42,-126.5 511.42,-133.5"/>
</g>
<!-- doxygen&#45;&gt;xml -->
<g id="edge5" class="edge">
<title>doxygen&#45;&gt;xml</title>
<path fill="none" stroke="#999999" d="M204.56,-19C222.39,-19 242.8,-19 259.8,-19"/>
<polygon fill="#999999" stroke="#999999" points="259.89,-22.5 269.89,-19 259.89,-15.5 259.89,-22.5"/>
</g>
</g>
</svg>
