<?xml version="1.0" encoding="UTF-8" standalone="no"?>
<!DOCTYPE svg PUBLIC "-//W3C//DTD SVG 1.1//EN"
 "http://www.w3.org/Graphics/SVG/1.1/DTD/svg11.dtd">
<!-- Generated by graphviz version 2.43.0 (0)
 -->
<!-- Title: gaf Pages: 1 -->
<svg width="843pt" height="385pt"
 viewBox="0.00 0.00 843.00 385.00" xmlns="http://www.w3.org/2000/svg" xmlns:xlink="http://www.w3.org/1999/xlink">
<g id="graph0" class="graph" transform="scale(1 1) rotate(0) translate(4 381)">
<title>gaf</title>
<g id="clust1" class="cluster">
<title>hap_layer</title>
<polygon fill="transparent" stroke="black" points="169,-293 169,-369 361,-369 361,-293 169,-293"/>
<text text-anchor="middle" x="265" y="-353.8" font-family="system-ui,-apple-system,Segoe UI,Roboto,Helvetica Neue,Arial,Noto Sans,sans-serif" font-size="14.00">HAP</text>
</g>
<g id="clust2" class="cluster">
<title>pbp_layer</title>
<polygon fill="transparent" stroke="black" points="369,-293 369,-369 439,-369 439,-293 369,-293"/>
<text text-anchor="middle" x="404" y="-353.8" font-family="system-ui,-apple-system,Segoe UI,Roboto,Helvetica Neue,Arial,Noto Sans,sans-serif" font-size="14.00">PBP</text>
</g>
<g id="clust3" class="cluster">
<title>tmap_layer</title>
<polygon fill="transparent" stroke="black" points="447,-293 447,-369 519,-369 519,-293 447,-293"/>
<text text-anchor="middle" x="483" y="-353.8" font-family="system-ui,-apple-system,Segoe UI,Roboto,Helvetica Neue,Arial,Noto Sans,sans-serif" font-size="14.00">TMAP</text>
</g>
<g id="clust4" class="cluster">
<title>gmap_layer</title>
<polygon fill="transparent" stroke="black" points="527,-293 527,-369 601,-369 601,-293 527,-293"/>
<text text-anchor="middle" x="564" y="-353.8" font-family="system-ui,-apple-system,Segoe UI,Roboto,Helvetica Neue,Arial,Noto Sans,sans-serif" font-size="14.00">GMAP</text>
</g>
<g id="clust5" class="cluster">
<title>gaf_layer</title>
<polygon fill="transparent" stroke="black" points="8,-8 8,-285 827,-285 827,-8 8,-8"/>
<text text-anchor="middle" x="417.5" y="-269.8" font-family="system-ui,-apple-system,Segoe UI,Roboto,Helvetica Neue,Arial,Noto Sans,sans-serif" font-size="14.00">Generic Audio Framework</text>
</g>
<g id="clust6" class="cluster">
<title>transition_and_coordination_control_layer</title>
<polygon fill="transparent" stroke="black" stroke-dasharray="5,2" points="281,-139 281,-254 511,-254 511,-139 281,-139"/>
<text text-anchor="middle" x="396" y="-238.8" font-family="system-ui,-apple-system,Segoe UI,Roboto,Helvetica Neue,Arial,Noto Sans,sans-serif" font-size="14.00">Transition and Coordination Control</text>
</g>
<g id="clust7" class="cluster">
<title>cap_layer</title>
<polygon fill="transparent" stroke="black" points="408,-147 408,-223 478,-223 478,-147 408,-147"/>
<text text-anchor="middle" x="443" y="-207.8" font-family="system-ui,-apple-system,Segoe UI,Roboto,Helvetica Neue,Arial,Noto Sans,sans-serif" font-size="14.00">CAP</text>
</g>
<g id="clust8" class="cluster">
<title>csip_layer</title>
<polygon fill="transparent" stroke="black" points="322,-147 322,-223 392,-223 392,-147 322,-147"/>
<text text-anchor="middle" x="357" y="-207.8" font-family="system-ui,-apple-system,Segoe UI,Roboto,Helvetica Neue,Arial,Noto Sans,sans-serif" font-size="14.00">CSIP</text>
</g>
<g id="clust9" class="cluster">
<title>stream_control_layer</title>
<polygon fill="transparent" stroke="black" stroke-dasharray="5,2" points="16,-16 16,-131 224,-131 224,-16 16,-16"/>
<text text-anchor="middle" x="120" y="-115.8" font-family="system-ui,-apple-system,Segoe UI,Roboto,Helvetica Neue,Arial,Noto Sans,sans-serif" font-size="14.00">Stream Control</text>
</g>
<g id="clust10" class="cluster">
<title>bap_layer</title>
<polygon fill="transparent" stroke="black" points="24,-24 24,-100 216,-100 216,-24 24,-24"/>
<text text-anchor="middle" x="120" y="-84.8" font-family="system-ui,-apple-system,Segoe UI,Roboto,Helvetica Neue,Arial,Noto Sans,sans-serif" font-size="14.00">BAP</text>
</g>
<g id="clust11" class="cluster">
<title>content_control_layer</title>
<polygon fill="transparent" stroke="black" stroke-dasharray="5,2" points="232,-16 232,-131 396,-131 396,-16 232,-16"/>
<text text-anchor="middle" x="314" y="-115.8" font-family="system-ui,-apple-system,Segoe UI,Roboto,Helvetica Neue,Arial,Noto Sans,sans-serif" font-size="14.00">Content Control</text>
</g>
<g id="clust12" class="cluster">
<title>mcp_layer</title>
<polygon fill="transparent" stroke="black" points="318,-24 318,-100 388,-100 388,-24 318,-24"/>
<text text-anchor="middle" x="353" y="-84.8" font-family="system-ui,-apple-system,Segoe UI,Roboto,Helvetica Neue,Arial,Noto Sans,sans-serif" font-size="14.00">MCP</text>
</g>
<g id="clust13" class="cluster">
<title>ccp_layer</title>
<polygon fill="transparent" stroke="black" points="240,-24 240,-100 310,-100 310,-24 240,-24"/>
<text text-anchor="middle" x="275" y="-84.8" font-family="system-ui,-apple-system,Segoe UI,Roboto,Helvetica Neue,Arial,Noto Sans,sans-serif" font-size="14.00">CCP</text>
</g>
<g id="clust14" class="cluster">
<title>rendering_and_capture_control_layer</title>
<polygon fill="transparent" stroke="black" stroke-dasharray="5,2" points="404,-16 404,-131 819,-131 819,-16 404,-16"/>
<text text-anchor="middle" x="611.5" y="-115.8" font-family="system-ui,-apple-system,Segoe UI,Roboto,Helvetica Neue,Arial,Noto Sans,sans-serif" font-size="14.00">Rendering and Capture Control</text>
</g>
<g id="clust15" class="cluster">
<title>micp_layer</title>
<polygon fill="transparent" stroke="black" points="644,-24 644,-100 811,-100 811,-24 644,-24"/>
<text text-anchor="middle" x="727.5" y="-84.8" font-family="system-ui,-apple-system,Segoe UI,Roboto,Helvetica Neue,Arial,Noto Sans,sans-serif" font-size="14.00">MICP</text>
</g>
<g id="clust16" class="cluster">
<title>vcp_layer</title>
<polygon fill="transparent" stroke="black" points="412,-24 412,-100 636,-100 636,-24 412,-24"/>
<text text-anchor="middle" x="524" y="-84.8" font-family="system-ui,-apple-system,Segoe UI,Roboto,Helvetica Neue,Arial,Noto Sans,sans-serif" font-size="14.00">VCP</text>
</g>
<!-- HAS -->
<g id="node1" class="node">
<title>HAS</title>
<polygon fill="white" stroke="#999999" points="299,-301.5 299,-337.5 353,-337.5 353,-301.5 299,-301.5"/>
<text text-anchor="middle" x="326" y="-315.8" font-family="system-ui,-apple-system,Segoe UI,Roboto,Helvetica Neue,Arial,Noto Sans,sans-serif" font-size="14.00" fill="#404040">HAS</text>
</g>
<!-- CAS -->
<g id="node7" class="node">
<title>CAS</title>
<polygon fill="white" stroke="#999999" points="416,-155.5 416,-191.5 470,-191.5 470,-155.5 416,-155.5"/>
<text text-anchor="middle" x="443" y="-169.8" font-family="system-ui,-apple-system,Segoe UI,Roboto,Helvetica Neue,Arial,Noto Sans,sans-serif" font-size="14.00" fill="#404040">CAS</text>
</g>
<!-- HAS&#45;&gt;CAS -->
<!-- BAS -->
<g id="node2" class="node">
<title>BAS</title>
<polygon fill="none" stroke="#999999" stroke-dasharray="5,2" points="238,-301.5 238,-337.5 292,-337.5 292,-301.5 238,-301.5"/>
<text text-anchor="middle" x="265" y="-315.8" font-family="system-ui,-apple-system,Segoe UI,Roboto,Helvetica Neue,Arial,Noto Sans,sans-serif" font-size="14.00" fill="#404040">BAS</text>
</g>
<!-- IAS -->
<g id="node3" class="node">
<title>IAS</title>
<polygon fill="none" stroke="#999999" stroke-dasharray="5,2" points="177,-301.5 177,-337.5 231,-337.5 231,-301.5 177,-301.5"/>
<text text-anchor="middle" x="204" y="-315.8" font-family="system-ui,-apple-system,Segoe UI,Roboto,Helvetica Neue,Arial,Noto Sans,sans-serif" font-size="14.00" fill="#404040">IAS</text>
</g>
<!-- PBS -->
<!-- PBS&#45;&gt;CAS -->
<!-- TMAS -->
<g id="node5" class="node">
<title>TMAS</title>
<polygon fill="white" stroke="#999999" points="455.5,-301.5 455.5,-337.5 510.5,-337.5 510.5,-301.5 455.5,-301.5"/>
<text text-anchor="middle" x="483" y="-315.8" font-family="system-ui,-apple-system,Segoe UI,Roboto,Helvetica Neue,Arial,Noto Sans,sans-serif" font-size="14.00" fill="#404040">TMAS</text>
</g>
<!-- TMAS&#45;&gt;CAS -->
<!-- GMAS -->
<g id="node6" class="node">
<title>GMAS</title>
<polygon fill="white" stroke="#999999" points="535,-301.5 535,-337.5 593,-337.5 593,-301.5 535,-301.5"/>
<text text-anchor="middle" x="564" y="-315.8" font-family="system-ui,-apple-system,Segoe UI,Roboto,Helvetica Neue,Arial,Noto Sans,sans-serif" font-size="14.00" fill="#404040">GMAS</text>
</g>
<!-- GMAS&#45;&gt;CAS -->
<!-- PACS -->
<g id="node9" class="node">
<title>PACS</title>
<polygon fill="none" stroke="#999999" stroke-dasharray="5,2" points="93,-32.5 93,-68.5 147,-68.5 147,-32.5 93,-32.5"/>
<text text-anchor="middle" x="120" y="-46.8" font-family="system-ui,-apple-system,Segoe UI,Roboto,Helvetica Neue,Arial,Noto Sans,sans-serif" font-size="14.00" fill="#404040">PACS</text>
</g>
<!-- CAS&#45;&gt;PACS -->
<!-- ASCS -->
<g id="node10" class="node">
<title>ASCS</title>
<polygon fill="none" stroke="#999999" stroke-dasharray="5,2" points="32,-32.5 32,-68.5 86,-68.5 86,-32.5 32,-32.5"/>
<text text-anchor="middle" x="59" y="-46.8" font-family="system-ui,-apple-system,Segoe UI,Roboto,Helvetica Neue,Arial,Noto Sans,sans-serif" font-size="14.00" fill="#404040">ASCS</text>
</g>
<!-- CAS&#45;&gt;ASCS -->
<!-- BASS -->
<g id="node11" class="node">
<title>BASS</title>
<polygon fill="none" stroke="#999999" stroke-dasharray="5,2" points="154,-32.5 154,-68.5 208,-68.5 208,-32.5 154,-32.5"/>
<text text-anchor="middle" x="181" y="-46.8" font-family="system-ui,-apple-system,Segoe UI,Roboto,Helvetica Neue,Arial,Noto Sans,sans-serif" font-size="14.00" fill="#404040">BASS</text>
</g>
<!-- CAS&#45;&gt;BASS -->
<!-- MCS -->
<g id="node12" class="node">
<title>MCS</title>
<polygon fill="white" stroke="#999999" points="326,-32.5 326,-68.5 380,-68.5 380,-32.5 326,-32.5"/>
<text text-anchor="middle" x="353" y="-46.8" font-family="system-ui,-apple-system,Segoe UI,Roboto,Helvetica Neue,Arial,Noto Sans,sans-serif" font-size="14.00" fill="#404040">MCS</text>
</g>
<!-- CAS&#45;&gt;MCS -->
<!-- TBS -->
<g id="node13" class="node">
<title>TBS</title>
<polygon fill="white" stroke="#999999" points="248,-32.5 248,-68.5 302,-68.5 302,-32.5 248,-32.5"/>
<text text-anchor="middle" x="275" y="-46.8" font-family="system-ui,-apple-system,Segoe UI,Roboto,Helvetica Neue,Arial,Noto Sans,sans-serif" font-size="14.00" fill="#404040">TBS</text>
</g>
<!-- CAS&#45;&gt;TBS -->
<!-- MICS -->
<g id="node14" class="node">
<title>MICS</title>
<polygon fill="white" stroke="#999999" points="749,-32.5 749,-68.5 803,-68.5 803,-32.5 749,-32.5"/>
<text text-anchor="middle" x="776" y="-46.8" font-family="system-ui,-apple-system,Segoe UI,Roboto,Helvetica Neue,Arial,Noto Sans,sans-serif" font-size="14.00" fill="#404040">MICS</text>
</g>
<!-- CAS&#45;&gt;MICS -->
<!-- MICP_AICS -->
<g id="node15" class="node">
<title>MICP_AICS</title>
<polygon fill="none" stroke="#999999" stroke-dasharray="5,2" points="652,-32.5 652,-68.5 742,-68.5 742,-32.5 652,-32.5"/>
<text text-anchor="middle" x="697" y="-46.8" font-family="system-ui,-apple-system,Segoe UI,Roboto,Helvetica Neue,Arial,Noto Sans,sans-serif" font-size="14.00" fill="#404040">MICP_AICS</text>
</g>
<!-- CAS&#45;&gt;MICP_AICS -->
<!-- VCS -->
<g id="node16" class="node">
<title>VCS</title>
<polygon fill="white" stroke="#999999" points="483,-32.5 483,-68.5 537,-68.5 537,-32.5 483,-32.5"/>
<text text-anchor="middle" x="510" y="-46.8" font-family="system-ui,-apple-system,Segoe UI,Roboto,Helvetica Neue,Arial,Noto Sans,sans-serif" font-size="14.00" fill="#404040">VCS</text>
</g>
<!-- CAS&#45;&gt;VCS -->
<!-- VOCS -->
<g id="node17" class="node">
<title>VOCS</title>
<polygon fill="none" stroke="#999999" stroke-dasharray="5,2" points="420,-32.5 420,-68.5 476,-68.5 476,-32.5 420,-32.5"/>
<text text-anchor="middle" x="448" y="-46.8" font-family="system-ui,-apple-system,Segoe UI,Roboto,Helvetica Neue,Arial,Noto Sans,sans-serif" font-size="14.00" fill="#404040">VOCS</text>
</g>
<!-- CAS&#45;&gt;VOCS -->
<!-- VCP_AICS -->
<g id="node18" class="node">
<title>VCP_AICS</title>
<polygon fill="none" stroke="#999999" stroke-dasharray="5,2" points="544.5,-32.5 544.5,-68.5 627.5,-68.5 627.5,-32.5 544.5,-32.5"/>
<text text-anchor="middle" x="586" y="-46.8" font-family="system-ui,-apple-system,Segoe UI,Roboto,Helvetica Neue,Arial,Noto Sans,sans-serif" font-size="14.00" fill="#404040">VCP_AICS</text>
</g>
<!-- CAS&#45;&gt;VCP_AICS -->
<!-- CSIS -->
<g id="node8" class="node">
<title>CSIS</title>
<polygon fill="white" stroke="#999999" points="330,-155.5 330,-191.5 384,-191.5 384,-155.5 330,-155.5"/>
<text text-anchor="middle" x="357" y="-169.8" font-family="system-ui,-apple-system,Segoe UI,Roboto,Helvetica Neue,Arial,Noto Sans,sans-serif" font-size="14.00" fill="#404040">CSIS</text>
</g>
<!-- CSIS&#45;&gt;PACS -->
<!-- CSIS&#45;&gt;ASCS -->
<!-- CSIS&#45;&gt;BASS -->
<!-- CSIS&#45;&gt;MCS -->
<!-- CSIS&#45;&gt;TBS -->
<!-- CSIS&#45;&gt;MICS -->
<!-- CSIS&#45;&gt;MICP_AICS -->
<!-- CSIS&#45;&gt;VCS -->
<!-- CSIS&#45;&gt;VOCS -->
<!-- CSIS&#45;&gt;VCP_AICS -->
</g>
</svg>
