<?xml version="1.0" encoding="UTF-8" standalone="no"?>
<!DOCTYPE svg PUBLIC "-//W3C//DTD SVG 1.1//EN"
 "http://www.w3.org/Graphics/SVG/1.1/DTD/svg11.dtd">
<!-- Generated by graphviz version 2.43.0 (0)
 -->
<!-- Title: %3 Pages: 1 -->
<svg width="162pt" height="44pt"
 viewBox="0.00 0.00 162.00 44.00" xmlns="http://www.w3.org/2000/svg" xmlns:xlink="http://www.w3.org/1999/xlink">
<g id="graph0" class="graph" transform="scale(1 1) rotate(0) translate(4 40)">
<title>%3</title>
<!-- libposix -->
<g id="node1" class="node">
<title>libposix</title>
<polygon fill="#d5e8d4" stroke="#999999" points="62,-36 0,-36 0,0 62,0 62,-36"/>
<text text-anchor="middle" x="31" y="-14.3" font-family="system-ui,-apple-system,Segoe UI,Roboto,Helvetica Neue,Arial,Noto Sans,sans-serif" font-size="14.00" fill="#404040">libposix</text>
</g>
<!-- libzfoo -->
<g id="node2" class="node">
<title>libzfoo</title>
<polygon fill="#dae8fc" stroke="#999999" points="154,-36 98,-36 98,0 154,0 154,-36"/>
<text text-anchor="middle" x="126" y="-14.3" font-family="system-ui,-apple-system,Segoe UI,Roboto,Helvetica Neue,Arial,Noto Sans,sans-serif" font-size="14.00" fill="#404040">libzfoo</text>
</g>
<!-- libposix&#45;&gt;libzfoo -->
<g id="edge1" class="edge">
<title>libposix&#45;&gt;libzfoo</title>
<path fill="none" stroke="#999999" d="M62.19,-11.63C70.34,-11.24 79.25,-11.15 87.73,-11.37"/>
<polygon fill="#999999" stroke="#999999" points="87.65,-14.87 97.78,-11.79 87.94,-7.88 87.65,-14.87"/>
</g>
<!-- libzfoo&#45;&gt;libposix -->
<g id="edge2" class="edge">
<title>libzfoo&#45;&gt;libposix</title>
<path fill="none" stroke="#999999" d="M97.78,-24.21C89.85,-24.68 81,-24.84 72.43,-24.7"/>
<polygon fill="#999999" stroke="#999999" points="72.3,-21.19 62.19,-24.37 72.08,-28.19 72.3,-21.19"/>
</g>
</g>
</svg>
