<?xml version="1.0" encoding="UTF-8" standalone="no"?>
<!DOCTYPE svg PUBLIC "-//W3C//DTD SVG 1.1//EN"
 "http://www.w3.org/Graphics/SVG/1.1/DTD/svg11.dtd">
<!-- Generated by graphviz version 2.43.0 (0)
 -->
<!-- Title: %3 Pages: 1 -->
<svg width="405pt" height="228pt"
 viewBox="0.00 0.00 405.00 227.60" xmlns="http://www.w3.org/2000/svg" xmlns:xlink="http://www.w3.org/1999/xlink">
<g id="graph0" class="graph" transform="scale(1 1) rotate(0) translate(4 223.6)">
<title>%3</title>
<!-- init -->
<g id="node1" class="node">
<title>init</title>
<ellipse fill="white" stroke="#999999" cx="118" cy="-217.8" rx="1.8" ry="1.8"/>
</g>
<!-- SUSPENDED -->
<g id="node2" class="node">
<title>SUSPENDED</title>
<polygon fill="white" stroke="#999999" points="236,-180 0,-180 0,-144 236,-144 236,-180"/>
<text text-anchor="middle" x="118" y="-158.3" font-family="system-ui,-apple-system,Segoe UI,Roboto,Helvetica Neue,Arial,Noto Sans,sans-serif" font-size="14.00" fill="#404040">PM_DEVICE_STATE_SUSPENDED</text>
</g>
<!-- init&#45;&gt;SUSPENDED -->
<g id="edge1" class="edge">
<title>init&#45;&gt;SUSPENDED</title>
<path fill="none" stroke="#999999" d="M118,-215.87C118,-212.64 118,-201.55 118,-190.35"/>
<polygon fill="#999999" stroke="#999999" points="121.5,-190.26 118,-180.26 114.5,-190.26 121.5,-190.26"/>
</g>
<!-- ACTIVE -->
<g id="node3" class="node">
<title>ACTIVE</title>
<polygon fill="white" stroke="#999999" points="218.5,-36 17.5,-36 17.5,0 218.5,0 218.5,-36"/>
<text text-anchor="middle" x="118" y="-14.3" font-family="system-ui,-apple-system,Segoe UI,Roboto,Helvetica Neue,Arial,Noto Sans,sans-serif" font-size="14.00" fill="#404040">PM_DEVICE_STATE_ACTIVE</text>
</g>
<!-- SUSPENDED&#45;&gt;ACTIVE -->
<g id="edge2" class="edge">
<title>SUSPENDED&#45;&gt;ACTIVE</title>
<path fill="none" stroke="#999999" d="M113.42,-143.87C110.86,-119.67 110.57,-75.21 112.54,-46.39"/>
<polygon fill="#999999" stroke="#999999" points="116.05,-46.45 113.41,-36.19 109.07,-45.86 116.05,-46.45"/>
</g>
<!-- SUSPENDING -->
<g id="node4" class="node">
<title>SUSPENDING</title>
<polygon fill="white" stroke="#999999" points="397,-108 155,-108 155,-72 397,-72 397,-108"/>
<text text-anchor="middle" x="276" y="-86.3" font-family="system-ui,-apple-system,Segoe UI,Roboto,Helvetica Neue,Arial,Noto Sans,sans-serif" font-size="14.00" fill="#404040">PM_DEVICE_STATE_SUSPENDING</text>
</g>
<!-- SUSPENDED&#45;&gt;SUSPENDING -->
<!-- ACTIVE&#45;&gt;SUSPENDED -->
<g id="edge3" class="edge">
<title>ACTIVE&#45;&gt;SUSPENDED</title>
<path fill="none" stroke="#999999" d="M122.59,-36.19C125.15,-60.42 125.43,-104.89 123.45,-133.68"/>
<polygon fill="#999999" stroke="#999999" points="119.95,-133.61 122.58,-143.87 126.92,-134.21 119.95,-133.61"/>
</g>
<!-- ACTIVE&#45;&gt;SUSPENDING -->
<g id="edge4" class="edge">
<title>ACTIVE&#45;&gt;SUSPENDING</title>
<path fill="none" stroke="#999999" d="M162.42,-36.07C184.9,-45.59 211.98,-57.53 234.1,-67.66"/>
<polygon fill="#999999" stroke="#999999" points="232.7,-70.87 243.25,-71.88 235.63,-64.51 232.7,-70.87"/>
</g>
<!-- SUSPENDING&#45;&gt;SUSPENDED -->
<g id="edge5" class="edge">
<title>SUSPENDING&#45;&gt;SUSPENDED</title>
<path fill="none" stroke="#999999" d="M243.37,-108.07C222.7,-117.67 195.58,-129.74 171.81,-139.93"/>
<polygon fill="#999999" stroke="#999999" points="170.38,-136.74 162.55,-143.88 173.12,-143.18 170.38,-136.74"/>
</g>
<!-- SUSPENDING&#45;&gt;ACTIVE -->
</g>
</svg>
