<?xml version="1.0" encoding="UTF-8" standalone="no"?>
<!DOCTYPE svg PUBLIC "-//W3C//DTD SVG 1.1//EN"
 "http://www.w3.org/Graphics/SVG/1.1/DTD/svg11.dtd">
<!-- Generated by graphviz version 2.43.0 (0)
 -->
<!-- Title: %3 Pages: 1 -->
<svg width="822pt" height="224pt"
 viewBox="0.00 0.00 821.70 224.40" xmlns="http://www.w3.org/2000/svg" xmlns:xlink="http://www.w3.org/1999/xlink">
<g id="graph0" class="graph" transform="scale(1 1) rotate(0) translate(4 220.4)">
<title>%3</title>
<!-- action -->
<!-- devA -->
<g id="node2" class="node">
<title>devA</title>
<ellipse fill="white" stroke="#999999" cx="166.7" cy="-111.4" rx="32.49" ry="18"/>
<text text-anchor="middle" x="166.7" y="-107.7" font-family="system-ui,-apple-system,Segoe UI,Roboto,Helvetica Neue,Arial,Noto Sans,sans-serif" font-size="14.00" fill="#404040">gpio0</text>
</g>
<!-- action&#45;&gt;devA -->
<g id="edge1" class="edge">
<title>action&#45;&gt;devA</title>
<path fill="none" stroke="#999999" d="M166.7,-180.19C166.7,-168.56 166.7,-152.94 166.7,-139.63"/>
<polygon fill="#999999" stroke="#999999" points="170.2,-139.57 166.7,-129.57 163.2,-139.57 170.2,-139.57"/>
<text text-anchor="middle" x="261.7" y="-151.2" font-family="SFMono-Regular,Menlo,Monaco,Consolas,Liberation Mono,Courier New,Courier,monospace" font-size="14.00">pm_device_runtime_get()</text>
</g>
<!-- domain -->
<g id="node4" class="node">
<title>domain</title>
<ellipse fill="white" stroke="#999999" cx="322.7" cy="-24.4" rx="61.99" ry="18"/>
<text text-anchor="middle" x="322.7" y="-20.7" font-family="system-ui,-apple-system,Segoe UI,Roboto,Helvetica Neue,Arial,Noto Sans,sans-serif" font-size="14.00" fill="#404040">gpio_domain</text>
</g>
<!-- devA&#45;&gt;domain -->
<g id="edge2" class="edge">
<title>devA:se&#45;&gt;domain:n</title>
<path fill="none" stroke="#999999" d="M182.7,-94.4C220.26,-56.83 256.01,-104.12 300.7,-75.4 312.28,-67.95 319.19,-62.76 321.66,-52.43"/>
<polygon fill="#999999" stroke="#999999" points="325.15,-52.7 322.7,-42.4 318.19,-51.98 325.15,-52.7"/>
<text text-anchor="middle" x="413.7" y="-64.2" font-family="SFMono-Regular,Menlo,Monaco,Consolas,Liberation Mono,Courier New,Courier,monospace" font-size="14.00">pm_device_runtime_get()</text>
</g>
<!-- devB -->
<g id="node3" class="node">
<title>devB</title>
<ellipse fill="white" stroke="#999999" cx="535.7" cy="-111.4" rx="32.49" ry="18"/>
<text text-anchor="middle" x="535.7" y="-107.7" font-family="system-ui,-apple-system,Segoe UI,Roboto,Helvetica Neue,Arial,Noto Sans,sans-serif" font-size="14.00" fill="#404040">gpio1</text>
</g>
<!-- domain&#45;&gt;devA -->
<g id="edge4" class="edge">
<title>domain:sw&#45;&gt;devA:sw</title>
<path fill="none" stroke="#999999" d="M305.7,-6.4C281.9,17.4 28.91,-34.28 7.7,-60.4 -31.32,-108.43 90.45,-54.52 142.66,-87.97"/>
<polygon fill="#999999" stroke="#999999" points="140.7,-90.88 150.7,-94.4 145.08,-85.41 140.7,-90.88"/>
<text text-anchor="middle" x="152.2" y="-64.2" font-family="SFMono-Regular,Menlo,Monaco,Consolas,Liberation Mono,Courier New,Courier,monospace" font-size="14.00">action_cb(PM_DEVICE_ACTION_TURN_ON)</text>
</g>
<!-- domain&#45;&gt;devB -->
<g id="edge3" class="edge">
<title>domain&#45;&gt;devB</title>
<path fill="none" stroke="#999999" d="M381.33,-30.28C429.36,-35.34 492.57,-44.75 512.7,-60.4 520.26,-66.28 525.43,-75.22 528.91,-83.93"/>
<polygon fill="#999999" stroke="#999999" points="525.63,-85.15 532.18,-93.48 532.26,-82.88 525.63,-85.15"/>
<text text-anchor="middle" x="669.2" y="-64.2" font-family="SFMono-Regular,Menlo,Monaco,Consolas,Liberation Mono,Courier New,Courier,monospace" font-size="14.00">action_cb(PM_DEVICE_ACTION_TURN_ON)</text>
</g>
</g>
</svg>
