<?xml version="1.0" encoding="UTF-8" standalone="no"?>
<!DOCTYPE svg PUBLIC "-//W3C//DTD SVG 1.1//EN"
 "http://www.w3.org/Graphics/SVG/1.1/DTD/svg11.dtd">
<!-- Generated by graphviz version 2.43.0 (0)
 -->
<!-- Title: %3 Pages: 1 -->
<svg width="827pt" height="665pt"
 viewBox="0.00 0.00 826.85 664.67" xmlns="http://www.w3.org/2000/svg" xmlns:xlink="http://www.w3.org/1999/xlink">
<g id="graph0" class="graph" transform="scale(1 1) rotate(0) translate(4 660.67)">
<title>%3</title>
<!-- SUSPENDED -->
<g id="node1" class="node">
<title>SUSPENDED</title>
<ellipse fill="white" stroke="#999999" cx="157.29" cy="-153.39" rx="153.27" ry="153.27"/>
<text text-anchor="middle" x="157.29" y="-149.69" font-family="system-ui,-apple-system,Segoe UI,Roboto,Helvetica Neue,Arial,Noto Sans,sans-serif" font-size="14.00" fill="#404040">PM_DEVICE_STATE_SUSPENDED</text>
</g>
<!-- ACTIVE -->
<g id="node3" class="node">
<title>ACTIVE</title>
<ellipse fill="white" stroke="#999999" cx="688.21" cy="-459.39" rx="130.78" ry="130.78"/>
<text text-anchor="middle" x="688.21" y="-455.69" font-family="system-ui,-apple-system,Segoe UI,Roboto,Helvetica Neue,Arial,Noto Sans,sans-serif" font-size="14.00" fill="#404040">PM_DEVICE_STATE_ACTIVE</text>
</g>
<!-- SUSPENDED&#45;&gt;ACTIVE -->
<g id="edge5" class="edge">
<title>SUSPENDED&#45;&gt;ACTIVE</title>
<path fill="none" stroke="#999999" d="M265.19,-262.97C283.32,-285.14 300.73,-309.12 314.57,-333.39 327.11,-355.36 313.63,-370.62 332.57,-387.39 364.58,-415.73 462.81,-434.29 547.79,-445.45"/>
<polygon fill="#999999" stroke="#999999" points="547.45,-448.94 557.81,-446.74 548.34,-441.99 547.45,-448.94"/>
<text text-anchor="middle" x="436.07" y="-446.19" font-family="SFMono-Regular,Menlo,Monaco,Consolas,Liberation Mono,Courier New,Courier,monospace" font-size="14.00">PM_DEVICE_ACTION_RESUME</text>
</g>
<!-- OFF -->
<g id="node4" class="node">
<title>OFF</title>
<ellipse fill="white" stroke="#999999" cx="688.21" cy="-153.39" rx="116.98" ry="116.98"/>
<text text-anchor="middle" x="688.21" y="-149.69" font-family="system-ui,-apple-system,Segoe UI,Roboto,Helvetica Neue,Arial,Noto Sans,sans-serif" font-size="14.00" fill="#404040">PM_DEVICE_STATE_OFF</text>
</g>
<!-- SUSPENDED&#45;&gt;OFF -->
<g id="edge7" class="edge">
<title>SUSPENDED&#45;&gt;OFF</title>
<path fill="none" stroke="#999999" d="M310.92,-153.39C390.04,-153.39 485.54,-153.39 560.53,-153.39"/>
<polygon fill="#999999" stroke="#999999" points="560.97,-156.89 570.97,-153.39 560.97,-149.89 560.97,-156.89"/>
<text text-anchor="middle" x="436.07" y="-157.19" font-family="SFMono-Regular,Menlo,Monaco,Consolas,Liberation Mono,Courier New,Courier,monospace" font-size="14.00">PM_DEVICE_ACTION_TURN_OFF</text>
</g>
<!-- SUSPENDING -->
<g id="node2" class="node">
<title>SUSPENDING</title>
<ellipse fill="white" stroke="#999999" cx="157.29" cy="-499.39" rx="157.07" ry="157.07"/>
<text text-anchor="middle" x="157.29" y="-495.69" font-family="system-ui,-apple-system,Segoe UI,Roboto,Helvetica Neue,Arial,Noto Sans,sans-serif" font-size="14.00" fill="#404040">PM_DEVICE_STATE_SUSPENDING</text>
</g>
<!-- SUSPENDING&#45;&gt;SUSPENDED -->
<g id="edge3" class="edge">
<title>SUSPENDING&#45;&gt;SUSPENDED</title>
<path fill="none" stroke="#999999" d="M157.29,-342C157.29,-333.7 157.29,-325.36 157.29,-317.04"/>
<polygon fill="#999999" stroke="#999999" points="160.79,-316.91 157.29,-306.91 153.79,-316.91 160.79,-316.91"/>
<text text-anchor="middle" x="146.79" y="-320.74" font-family="SFMono-Regular,Menlo,Monaco,Consolas,Liberation Mono,Courier New,Courier,monospace" font-size="14.00">PM_DEVICE_ACTION_SUSPEND</text>
</g>
<!-- SUSPENDING&#45;&gt;ACTIVE -->
<g id="edge2" class="edge">
<title>SUSPENDING&#45;&gt;ACTIVE</title>
<path fill="none" stroke="#999999" d="M313.76,-481.42C387.7,-475.05 475.41,-468.48 547.24,-463.94"/>
<polygon fill="#999999" stroke="#999999" points="547.51,-467.43 557.27,-463.31 547.07,-460.44 547.51,-467.43"/>
</g>
<!-- ACTIVE&#45;&gt;SUSPENDED -->
<g id="edge4" class="edge">
<title>ACTIVE&#45;&gt;SUSPENDED</title>
<path fill="none" stroke="#999999" d="M574.67,-394.28C494.23,-347.74 385.41,-284.79 299.19,-234.91"/>
<polygon fill="#999999" stroke="#999999" points="300.8,-231.79 290.39,-229.81 297.29,-237.85 300.8,-231.79"/>
<text text-anchor="middle" x="436.07" y="-372.19" font-family="SFMono-Regular,Menlo,Monaco,Consolas,Liberation Mono,Courier New,Courier,monospace" font-size="14.00">PM_DEVICE_ACTION_SUSPEND</text>
</g>
<!-- ACTIVE&#45;&gt;SUSPENDING -->
<g id="edge1" class="edge">
<title>ACTIVE&#45;&gt;SUSPENDING</title>
<path fill="none" stroke="#999999" d="M558.48,-475.01C488.09,-481.31 400.11,-488.11 324.57,-493.13"/>
<polygon fill="#999999" stroke="#999999" points="324.23,-489.64 314.48,-493.79 324.69,-496.63 324.23,-489.64"/>
</g>
<!-- OFF&#45;&gt;SUSPENDED -->
<g id="edge6" class="edge">
<title>OFF&#45;&gt;SUSPENDED</title>
<path fill="none" stroke="#999999" d="M572.08,-137.98C561.11,-136.93 550.14,-136.03 539.57,-135.39 447.74,-129.81 424.45,-130.65 332.57,-135.39 328.39,-135.6 324.14,-135.85 319.87,-136.12"/>
<polygon fill="#999999" stroke="#999999" points="319.57,-132.63 309.83,-136.79 320.04,-139.61 319.57,-132.63"/>
<text text-anchor="middle" x="436.07" y="-139.19" font-family="SFMono-Regular,Menlo,Monaco,Consolas,Liberation Mono,Courier New,Courier,monospace" font-size="14.00">PM_DEVICE_ACTION_TURN_ON</text>
</g>
</g>
</svg>
