<?xml version="1.0" encoding="UTF-8" standalone="no"?>
<!DOCTYPE svg PUBLIC "-//W3C//DTD SVG 1.1//EN"
 "http://www.w3.org/Graphics/SVG/1.1/DTD/svg11.dtd">
<!-- Generated by graphviz version 2.43.0 (0)
 -->
<!-- Title: %3 Pages: 1 -->
<svg width="281pt" height="67pt"
 viewBox="0.00 0.00 281.00 67.00" xmlns="http://www.w3.org/2000/svg" xmlns:xlink="http://www.w3.org/1999/xlink">
<g id="graph0" class="graph" transform="scale(1 1) rotate(0) translate(4 63)">
<title>%3</title>
<!-- libposix -->
<g id="node1" class="node">
<title>libposix</title>
<polygon fill="#d5e8d4" stroke="#999999" points="62,-36 0,-36 0,0 62,0 62,-36"/>
<text text-anchor="middle" x="31" y="-14.3" font-family="system-ui,-apple-system,Segoe UI,Roboto,Helvetica Neue,Arial,Noto Sans,sans-serif" font-size="14.00" fill="#404040">libposix</text>
</g>
<!-- libzfoo -->
<g id="node2" class="node">
<title>libzfoo</title>
<polygon fill="#dae8fc" stroke="#999999" points="154,-59 98,-59 98,-23 154,-23 154,-59"/>
<text text-anchor="middle" x="126" y="-37.3" font-family="system-ui,-apple-system,Segoe UI,Roboto,Helvetica Neue,Arial,Noto Sans,sans-serif" font-size="14.00" fill="#404040">libzfoo</text>
</g>
<!-- libposix&#45;&gt;libzfoo -->
<g id="edge1" class="edge">
<title>libposix&#45;&gt;libzfoo</title>
<path fill="none" stroke="#999999" d="M62.19,-25.47C70.43,-27.5 79.44,-29.73 88.01,-31.85"/>
<polygon fill="#999999" stroke="#999999" points="87.24,-35.27 97.78,-34.27 88.92,-28.47 87.24,-35.27"/>
</g>
<!-- libcommon -->
<g id="node3" class="node">
<title>libcommon</title>
<polygon fill="#f8cecc" stroke="#999999" points="273,-36 190,-36 190,0 273,0 273,-36"/>
<text text-anchor="middle" x="231.5" y="-14.3" font-family="system-ui,-apple-system,Segoe UI,Roboto,Helvetica Neue,Arial,Noto Sans,sans-serif" font-size="14.00" fill="#404040">libcommon</text>
</g>
<!-- libposix&#45;&gt;libcommon -->
<g id="edge2" class="edge">
<title>libposix&#45;&gt;libcommon</title>
<path fill="none" stroke="#999999" d="M62.21,-15.78C73.44,-15.06 86.3,-14.35 98,-14 122.88,-13.25 129.12,-13.35 154,-14 162.22,-14.21 170.94,-14.56 179.43,-14.96"/>
<polygon fill="#999999" stroke="#999999" points="179.46,-18.46 189.62,-15.47 179.81,-11.47 179.46,-18.46"/>
</g>
<!-- libzfoo&#45;&gt;libcommon -->
<g id="edge3" class="edge">
<title>libzfoo&#45;&gt;libcommon</title>
<path fill="none" stroke="#999999" d="M154.19,-34.96C162.11,-33.2 171.03,-31.22 179.91,-29.24"/>
<polygon fill="#999999" stroke="#999999" points="180.85,-32.62 189.85,-27.03 179.33,-25.79 180.85,-32.62"/>
</g>
</g>
</svg>
