<?xml version="1.0" encoding="UTF-8" standalone="no"?>
<!DOCTYPE svg PUBLIC "-//W3C//DTD SVG 1.1//EN"
 "http://www.w3.org/Graphics/SVG/1.1/DTD/svg11.dtd">
<!-- Generated by graphviz version 2.43.0 (0)
 -->
<!-- Title: smf_hierarchical_initial Pages: 1 -->
<svg width="294pt" height="413pt"
 viewBox="0.00 0.00 293.50 412.80" xmlns="http://www.w3.org/2000/svg" xmlns:xlink="http://www.w3.org/1999/xlink">
<g id="graph0" class="graph" transform="scale(1 1) rotate(0) translate(4 408.8)">
<title>smf_hierarchical_initial</title>
<g id="clust1" class="cluster">
<title>cluster_root</title>
<path fill="transparent" stroke="black" d="M177.5,-8C177.5,-8 265.5,-8 265.5,-8 271.5,-8 277.5,-14 277.5,-20 277.5,-20 277.5,-384.8 277.5,-384.8 277.5,-390.8 271.5,-396.8 265.5,-396.8 265.5,-396.8 177.5,-396.8 177.5,-396.8 171.5,-396.8 165.5,-390.8 165.5,-384.8 165.5,-384.8 165.5,-20 165.5,-20 165.5,-14 171.5,-8 177.5,-8"/>
<text text-anchor="middle" x="221.5" y="-381.6" font-family="system-ui,-apple-system,Segoe UI,Roboto,Helvetica Neue,Arial,Noto Sans,sans-serif" font-size="14.00">ROOT</text>
</g>
<g id="clust3" class="cluster">
<title>cluster_c</title>
<path fill="transparent" stroke="black" d="M185.5,-80C185.5,-80 253.5,-80 253.5,-80 259.5,-80 265.5,-86 265.5,-92 265.5,-92 265.5,-215 265.5,-215 265.5,-221 259.5,-227 253.5,-227 253.5,-227 185.5,-227 185.5,-227 179.5,-227 173.5,-221 173.5,-215 173.5,-215 173.5,-92 173.5,-92 173.5,-86 179.5,-80 185.5,-80"/>
<text text-anchor="middle" x="219.5" y="-211.8" font-family="system-ui,-apple-system,Segoe UI,Roboto,Helvetica Neue,Arial,Noto Sans,sans-serif" font-size="14.00">PARENT_C</text>
</g>
<g id="clust2" class="cluster">
<title>cluster_ab</title>
<path fill="transparent" stroke="black" d="M185.5,-235C185.5,-235 257.5,-235 257.5,-235 263.5,-235 269.5,-241 269.5,-247 269.5,-247 269.5,-353.8 269.5,-353.8 269.5,-359.8 263.5,-365.8 257.5,-365.8 257.5,-365.8 185.5,-365.8 185.5,-365.8 179.5,-365.8 173.5,-359.8 173.5,-353.8 173.5,-353.8 173.5,-247 173.5,-247 173.5,-241 179.5,-235 185.5,-235"/>
<text text-anchor="middle" x="221.5" y="-350.6" font-family="system-ui,-apple-system,Segoe UI,Roboto,Helvetica Neue,Arial,Noto Sans,sans-serif" font-size="14.00">PARENT_AB</text>
</g>
<!-- smf_set_initial() -->
<g id="node1" class="node">
<title>smf_set_initial()</title>
<polygon fill="white" stroke="transparent" points="157,-351 0,-351 0,-315 157,-315 157,-351"/>
<text text-anchor="middle" x="78.5" y="-329.3" font-family="Courier,monospace" font-size="14.00" fill="#404040">smf_set_initial()</text>
</g>
<!-- STATE_A -->
<g id="node3" class="node">
<title>STATE_A</title>
<polygon fill="white" stroke="#999999" points="256,-279 181,-279 181,-243 256,-243 256,-279"/>
<text text-anchor="middle" x="218.5" y="-257.3" font-family="system-ui,-apple-system,Segoe UI,Roboto,Helvetica Neue,Arial,Noto Sans,sans-serif" font-size="14.00" fill="#404040">STATE_A</text>
</g>
<!-- smf_set_initial()&#45;&gt;STATE_A -->
<g id="edge7" class="edge">
<title>smf_set_initial()&#45;&gt;STATE_A</title>
<path fill="none" stroke="#999999" d="M112.75,-314.88C128.33,-307.09 147.14,-297.68 164.55,-288.97"/>
<polygon fill="#999999" stroke="#999999" points="166.12,-292.1 173.5,-284.5 162.99,-285.84 166.12,-292.1"/>
</g>
<!-- ab_init_state -->
<g id="node2" class="node">
<title>ab_init_state</title>
<ellipse fill="white" stroke="#999999" cx="218.5" cy="-333" rx="1.8" ry="1.8"/>
</g>
<!-- ab_init_state&#45;&gt;STATE_A -->
<g id="edge1" class="edge">
<title>ab_init_state&#45;&gt;STATE_A</title>
<path fill="none" stroke="#999999" d="M218.5,-331.01C218.5,-326.41 218.5,-306.64 218.5,-289.44"/>
<polygon fill="#999999" stroke="#999999" points="222,-289.21 218.5,-279.21 215,-289.21 222,-289.21"/>
</g>
<!-- STATE_B -->
<g id="node4" class="node">
<title>STATE_B</title>
<polygon fill="white" stroke="#999999" points="256,-196 181,-196 181,-160 256,-160 256,-196"/>
<text text-anchor="middle" x="218.5" y="-174.3" font-family="system-ui,-apple-system,Segoe UI,Roboto,Helvetica Neue,Arial,Noto Sans,sans-serif" font-size="14.00" fill="#404040">STATE_B</text>
</g>
<!-- STATE_A&#45;&gt;STATE_B -->
<g id="edge2" class="edge">
<title>STATE_A&#45;&gt;STATE_B</title>
<path fill="none" stroke="#999999" d="M218.5,-242.82C218.5,-232.19 218.5,-218.31 218.5,-206.2"/>
<polygon fill="#999999" stroke="#999999" points="222,-206.15 218.5,-196.15 215,-206.15 222,-206.15"/>
</g>
<!-- STATE_C -->
<g id="node5" class="node">
<title>STATE_C</title>
<polygon fill="white" stroke="#999999" points="257.5,-124 181.5,-124 181.5,-88 257.5,-88 257.5,-124"/>
<text text-anchor="middle" x="219.5" y="-102.3" font-family="system-ui,-apple-system,Segoe UI,Roboto,Helvetica Neue,Arial,Noto Sans,sans-serif" font-size="14.00" fill="#404040">STATE_C</text>
</g>
<!-- STATE_B&#45;&gt;STATE_C -->
<g id="edge3" class="edge">
<title>STATE_B&#45;&gt;STATE_C</title>
<path fill="none" stroke="#999999" d="M218.75,-159.7C218.86,-151.98 218.99,-142.71 219.11,-134.11"/>
<polygon fill="#999999" stroke="#999999" points="222.61,-134.15 219.26,-124.1 215.61,-134.05 222.61,-134.15"/>
</g>
<!-- STATE_D -->
<g id="node6" class="node">
<title>STATE_D</title>
<polygon fill="white" stroke="#999999" points="250.5,-52 174.5,-52 174.5,-16 250.5,-16 250.5,-52"/>
<text text-anchor="middle" x="212.5" y="-30.3" font-family="system-ui,-apple-system,Segoe UI,Roboto,Helvetica Neue,Arial,Noto Sans,sans-serif" font-size="14.00" fill="#404040">STATE_D</text>
</g>
<!-- STATE_C&#45;&gt;STATE_D -->
<g id="edge6" class="edge">
<title>STATE_C&#45;&gt;STATE_D</title>
<path fill="none" stroke="#999999" d="M217.77,-87.7C217,-79.98 216.07,-70.71 215.21,-62.11"/>
<polygon fill="#999999" stroke="#999999" points="218.69,-61.71 214.21,-52.1 211.72,-62.4 218.69,-61.71"/>
</g>
<!-- DC -->
<!-- STATE_C&#45;&gt;DC -->
<g id="edge4" class="edge">
<title>STATE_C&#45;&gt;DC</title>
<path fill="none" stroke="#999999" d="M231.15,-80C237.29,-71.35 244.49,-61.44 250.5,-52 255.02,-44.9 259.36,-35.31 268.08,-35.01"/>
</g>
<!-- DC&#45;&gt;STATE_C -->
<g id="edge5" class="edge">
<title>DC&#45;&gt;STATE_C</title>
<path fill="none" stroke="#999999" d="M268.91,-35.01C277.36,-35.31 273.02,-44.9 268.5,-52 264.28,-58.64 259.46,-65.51 254.5,-72.01"/>
<polygon fill="#999999" stroke="#999999" points="251.63,-69.99 248.17,-80 257.12,-74.34 251.63,-69.99"/>
</g>
</g>
</svg>
