<?xml version="1.0" encoding="UTF-8" standalone="no"?>
<!DOCTYPE svg PUBLIC "-//W3C//DTD SVG 1.1//EN"
 "http://www.w3.org/Graphics/SVG/1.1/DTD/svg11.dtd">
<!-- Generated by graphviz version 2.43.0 (0)
 -->
<!-- Title: %3 Pages: 1 -->
<svg width="168pt" height="444pt"
 viewBox="0.00 0.00 168.00 443.60" xmlns="http://www.w3.org/2000/svg" xmlns:xlink="http://www.w3.org/1999/xlink">
<g id="graph0" class="graph" transform="scale(1 1) rotate(0) translate(4 439.6)">
<title>%3</title>
<!-- init -->
<g id="node1" class="node">
<title>init</title>
<ellipse fill="white" stroke="#999999" cx="80" cy="-433.8" rx="1.8" ry="1.8"/>
</g>
<!-- New -->
<g id="node2" class="node">
<title>New</title>
<polygon fill="white" stroke="#999999" points="107,-396 53,-396 53,-360 107,-360 107,-396"/>
<text text-anchor="middle" x="80" y="-374.3" font-family="system-ui,-apple-system,Segoe UI,Roboto,Helvetica Neue,Arial,Noto Sans,sans-serif" font-size="14.00" fill="#404040">New</text>
</g>
<!-- init&#45;&gt;New -->
<g id="edge1" class="edge">
<title>init&#45;&gt;New</title>
<path fill="none" stroke="#999999" d="M80,-431.87C80,-428.64 80,-417.55 80,-406.35"/>
<polygon fill="#999999" stroke="#999999" points="83.5,-406.26 80,-396.26 76.5,-406.26 83.5,-406.26"/>
</g>
<!-- Triage -->
<g id="node3" class="node">
<title>Triage</title>
<polygon fill="white" stroke="#999999" points="107.5,-324 52.5,-324 52.5,-288 107.5,-288 107.5,-324"/>
<text text-anchor="middle" x="80" y="-302.3" font-family="system-ui,-apple-system,Segoe UI,Roboto,Helvetica Neue,Arial,Noto Sans,sans-serif" font-size="14.00" fill="#404040">Triage</text>
</g>
<!-- New&#45;&gt;Triage -->
<g id="edge2" class="edge">
<title>New&#45;&gt;Triage</title>
<path fill="none" stroke="#999999" d="M80,-359.7C80,-351.98 80,-342.71 80,-334.11"/>
<polygon fill="#999999" stroke="#999999" points="83.5,-334.1 80,-324.1 76.5,-334.1 83.5,-334.1"/>
</g>
<!-- Assigned -->
<g id="node4" class="node">
<title>Assigned</title>
<polygon fill="white" stroke="#999999" points="72,-252 0,-252 0,-216 72,-216 72,-252"/>
<text text-anchor="middle" x="36" y="-230.3" font-family="system-ui,-apple-system,Segoe UI,Roboto,Helvetica Neue,Arial,Noto Sans,sans-serif" font-size="14.00" fill="#404040">Assigned</text>
</g>
<!-- Triage&#45;&gt;Assigned -->
<g id="edge4" class="edge">
<title>Triage&#45;&gt;Assigned</title>
<path fill="none" stroke="#999999" d="M69.12,-287.7C64.01,-279.56 57.8,-269.69 52.16,-260.7"/>
<polygon fill="#999999" stroke="#999999" points="55.04,-258.71 46.75,-252.1 49.11,-262.43 55.04,-258.71"/>
</g>
<!-- Rejected -->
<g id="node5" class="node">
<title>Rejected</title>
<polygon fill="white" stroke="#999999" points="160,-252 90,-252 90,-216 160,-216 160,-252"/>
<text text-anchor="middle" x="125" y="-230.3" font-family="system-ui,-apple-system,Segoe UI,Roboto,Helvetica Neue,Arial,Noto Sans,sans-serif" font-size="14.00" fill="#404040">Rejected</text>
</g>
<!-- Triage&#45;&gt;Rejected -->
<g id="edge3" class="edge">
<title>Triage&#45;&gt;Rejected</title>
<path fill="none" stroke="#999999" d="M96.66,-279.08C100.55,-273.03 104.69,-266.59 108.57,-260.56"/>
<polygon fill="#999999" stroke="#999999" points="93.59,-277.39 91.12,-287.7 99.48,-281.18 93.59,-277.39"/>
<polygon fill="#999999" stroke="#999999" points="111.54,-262.41 114,-252.1 105.65,-258.62 111.54,-262.41"/>
</g>
<!-- Review -->
<g id="node6" class="node">
<title>Review</title>
<polygon fill="white" stroke="#999999" points="110.5,-180 49.5,-180 49.5,-144 110.5,-144 110.5,-180"/>
<text text-anchor="middle" x="80" y="-158.3" font-family="system-ui,-apple-system,Segoe UI,Roboto,Helvetica Neue,Arial,Noto Sans,sans-serif" font-size="14.00" fill="#404040">Review</text>
</g>
<!-- Assigned&#45;&gt;Review -->
<g id="edge5" class="edge">
<title>Assigned&#45;&gt;Review</title>
<path fill="none" stroke="#999999" d="M52.29,-207.08C56.01,-201.17 59.95,-194.89 63.67,-188.98"/>
<polygon fill="#999999" stroke="#999999" points="49.23,-205.37 46.88,-215.7 55.16,-209.09 49.23,-205.37"/>
<polygon fill="#999999" stroke="#999999" points="66.89,-190.43 69.25,-180.1 60.96,-186.71 66.89,-190.43"/>
</g>
<!-- Review&#45;&gt;Rejected -->
<g id="edge7" class="edge">
<title>Review&#45;&gt;Rejected</title>
<path fill="none" stroke="#999999" d="M91,-180.1C96.21,-188.21 102.55,-198.08 108.34,-207.08"/>
<polygon fill="#999999" stroke="#999999" points="105.52,-209.18 113.88,-215.7 111.41,-205.39 105.52,-209.18"/>
</g>
<!-- Accepted -->
<g id="node7" class="node">
<title>Accepted</title>
<polygon fill="white" stroke="#999999" points="116.5,-108 43.5,-108 43.5,-72 116.5,-72 116.5,-108"/>
<text text-anchor="middle" x="80" y="-86.3" font-family="system-ui,-apple-system,Segoe UI,Roboto,Helvetica Neue,Arial,Noto Sans,sans-serif" font-size="14.00" fill="#404040">Accepted</text>
</g>
<!-- Review&#45;&gt;Accepted -->
<g id="edge6" class="edge">
<title>Review&#45;&gt;Accepted</title>
<path fill="none" stroke="#999999" d="M80,-143.7C80,-135.98 80,-126.71 80,-118.11"/>
<polygon fill="#999999" stroke="#999999" points="83.5,-118.1 80,-108.1 76.5,-118.1 83.5,-118.1"/>
</g>
<!-- Public -->
<g id="node8" class="node">
<title>Public</title>
<polygon fill="white" stroke="#999999" points="107,-36 53,-36 53,0 107,0 107,-36"/>
<text text-anchor="middle" x="80" y="-14.3" font-family="system-ui,-apple-system,Segoe UI,Roboto,Helvetica Neue,Arial,Noto Sans,sans-serif" font-size="14.00" fill="#404040">Public</text>
</g>
<!-- Accepted&#45;&gt;Public -->
<g id="edge8" class="edge">
<title>Accepted&#45;&gt;Public</title>
<path fill="none" stroke="#999999" d="M80,-71.7C80,-63.98 80,-54.71 80,-46.11"/>
<polygon fill="#999999" stroke="#999999" points="83.5,-46.1 80,-36.1 76.5,-46.1 83.5,-46.1"/>
</g>
</g>
</svg>
